  0
SECTION
  2
HEADER
  9
$ACADVER
  1
AC1006
  9
$EXTMIN
 10
0.000000
 20
0.000000
 30
0.000000
  9
$EXTMAX
 10
300.000000
 20
300.000000
 30
0.000000
  0
ENDSEC
  0
SECTION
  2
ENTITIES
  0
POLYLINE
  8
0
 66
1
 70
1
  0
VERTEX
  8
0
 10
86.980118
 20
294.049972
 42
0.092350
  0
VERTEX
  8
0
 10
83.855411
 20
291.571002
 42
0.081258
  0
VERTEX
  8
0
 10
81.663879
 20
288.026748
 42
0.053349
  0
VERTEX
  8
0
 10
80.110311
 20
282.724737
 42
0.016598
  0
VERTEX
  8
0
 10
78.907519
 20
274.502038
 42
0.033499
  0
VERTEX
  8
0
 10
78.354514
 20
262.243483
 42
0.030005
  0
VERTEX
  8
0
 10
79.395867
 20
249.554499
 42
0.027546
  0
VERTEX
  8
0
 10
82.084802
 20
236.079007
 42
0.020082
  0
VERTEX
  8
0
 10
86.485318
 20
221.449747
 42
-0.015423
  0
VERTEX
  8
0
 10
87.447998
 20
218.354209
 42
-0.013663
  0
VERTEX
  8
0
 10
88.261312
 20
215.078154
 42
-0.013853
  0
VERTEX
  8
0
 10
88.831199
 20
212.087706
 42
-0.040173
  0
VERTEX
  8
0
 10
89.000000
 20
209.990189
 42
0.034210
  0
VERTEX
  8
0
 10
89.133585
 20
208.040066
 42
0.038812
  0
VERTEX
  8
0
 10
89.532202
 20
206.209177
 42
0.041134
  0
VERTEX
  8
0
 10
90.179154
 20
204.561639
 42
0.050373
  0
VERTEX
  8
0
 10
91.053331
 20
203.158161
 42
-0.008152
  0
VERTEX
  8
0
 10
92.004575
 20
201.884320
 42
-0.003936
  0
VERTEX
  8
0
 10
93.182941
 20
200.224085
 42
-0.003901
  0
VERTEX
  8
0
 10
94.384300
 20
198.473972
 42
-0.005590
  0
VERTEX
  8
0
 10
95.419667
 20
196.902555
 42
0.000000
  0
VERTEX
  8
0
 10
97.732673
 20
193.305110
 42
0.000000
  0
VERTEX
  8
0
 10
94.116337
 20
192.032917
 42
0.077608
  0
VERTEX
  8
0
 10
89.041233
 20
189.305189
 42
0.142481
  0
VERTEX
  8
0
 10
86.262681
 20
185.570649
 42
0.182604
  0
VERTEX
  8
0
 10
86.281090
 20
181.591706
 42
0.138638
  0
VERTEX
  8
0
 10
88.913402
 20
178.066367
 42
0.000000
  0
VERTEX
  8
0
 10
91.826804
 20
175.833600
 42
0.000000
  0
VERTEX
  8
0
 10
89.326218
 20
172.166800
 42
0.041083
  0
VERTEX
  8
0
 10
84.021027
 20
162.823077
 42
0.037295
  0
VERTEX
  8
0
 10
80.114158
 20
152.434670
 42
0.035922
  0
VERTEX
  8
0
 10
77.678642
 20
141.192706
 42
0.032265
  0
VERTEX
  8
0
 10
76.761107
 20
129.304416
 42
0.000000
  0
VERTEX
  8
0
 10
76.620948
 20
118.108832
 42
0.000000
  0
VERTEX
  8
0
 10
72.172823
 20
116.804416
 42
0.040577
  0
VERTEX
  8
0
 10
70.153756
 20
116.029730
 42
0.020371
  0
VERTEX
  8
0
 10
67.739630
 20
114.747610
 42
0.020083
  0
VERTEX
  8
0
 10
65.336070
 20
113.210034
 42
0.027980
  0
VERTEX
  8
0
 10
63.327408
 20
111.634258
 42
0.067284
  0
VERTEX
  8
0
 10
58.767951
 20
106.385885
 42
0.072788
  0
VERTEX
  8
0
 10
55.911634
 20
100.248546
 42
0.064010
  0
VERTEX
  8
0
 10
54.706836
 20
92.896100
 42
0.037871
  0
VERTEX
  8
0
 10
55.072963
 20
84.000000
 42
0.004401
  0
VERTEX
  8
0
 10
55.456051
 20
80.966980
 42
0.004938
  0
VERTEX
  8
0
 10
55.879150
 20
78.055668
 42
0.004550
  0
VERTEX
  8
0
 10
56.286176
 20
75.585295
 42
0.026299
  0
VERTEX
  8
0
 10
56.581263
 20
74.295891
 42
-0.038945
  0
VERTEX
  8
0
 10
56.837032
 20
73.032302
 42
-0.299792
  0
VERTEX
  8
0
 10
56.581452
 20
72.517309
 42
-0.161808
  0
VERTEX
  8
0
 10
55.845717
 20
72.362981
 42
-0.011701
  0
VERTEX
  8
0
 10
53.759418
 20
72.651615
 42
0.101872
  0
VERTEX
  8
0
 10
49.680248
 20
72.479505
 42
0.083009
  0
VERTEX
  8
0
 10
45.664436
 20
70.730055
 42
0.083592
  0
VERTEX
  8
0
 10
42.459695
 20
67.784493
 42
0.105759
  0
VERTEX
  8
0
 10
40.713679
 20
64.169813
 42
0.104919
  0
VERTEX
  8
0
 10
40.634644
 20
61.551352
 42
0.037741
  0
VERTEX
  8
0
 10
41.577732
 20
57.923741
 42
0.036856
  0
VERTEX
  8
0
 10
43.187963
 20
54.151718
 42
0.047271
  0
VERTEX
  8
0
 10
45.228724
 20
50.979160
 42
0.063602
  0
VERTEX
  8
0
 10
50.660714
 20
45.630455
 42
0.038238
  0
VERTEX
  8
0
 10
58.267530
 20
40.709520
 42
0.038526
  0
VERTEX
  8
0
 10
66.259012
 20
37.133570
 42
0.086400
  0
VERTEX
  8
0
 10
72.787513
 20
36.003738
 42
0.071336
  0
VERTEX
  8
0
 10
76.320872
 20
36.514062
 42
0.064545
  0
VERTEX
  8
0
 10
79.700763
 20
38.002320
 42
0.072368
  0
VERTEX
  8
0
 10
82.200729
 20
40.057980
 42
0.175624
  0
VERTEX
  8
0
 10
83.096827
 20
42.235302
 42
0.005008
  0
VERTEX
  8
0
 10
83.142599
 20
43.633959
 42
0.000579
  0
VERTEX
  8
0
 10
83.210206
 20
46.772245
 42
0.000697
  0
VERTEX
  8
0
 10
83.281089
 20
50.505114
 42
0.000569
  0
VERTEX
  8
0
 10
83.346827
 20
54.500000
 42
-0.022566
  0
VERTEX
  8
0
 10
83.795731
 20
61.918200
 42
-0.066854
  0
VERTEX
  8
0
 10
85.000942
 20
66.862977
 42
-0.088386
  0
VERTEX
  8
0
 10
87.232506
 20
70.511782
 42
-0.063232
  0
VERTEX
  8
0
 10
90.839465
 20
73.670799
 42
-0.084038
  0
VERTEX
  8
0
 10
94.762149
 20
75.447609
 42
-0.033926
  0
VERTEX
  8
0
 10
100.552615
 20
76.560048
 42
-0.033782
  0
VERTEX
  8
0
 10
106.398574
 20
76.878617
 42
-0.091178
  0
VERTEX
  8
0
 10
110.462034
 20
76.076255
 42
0.024505
  0
VERTEX
  8
0
 10
116.002398
 20
74.192145
 42
0.015042
  0
VERTEX
  8
0
 10
122.687116
 20
72.494378
 42
0.014915
  0
VERTEX
  8
0
 10
129.165935
 20
71.256372
 42
0.038569
  0
VERTEX
  8
0
 10
133.905235
 20
70.867439
 42
0.000000
  0
VERTEX
  8
0
 10
139.511860
 20
70.840623
 42
0.000000
  0
VERTEX
  8
0
 10
141.086396
 20
61.160181
 42
0.017253
  0
VERTEX
  8
0
 10
142.055637
 20
56.271945
 42
0.013814
  0
VERTEX
  8
0
 10
143.424530
 20
51.081662
 42
0.013155
  0
VERTEX
  8
0
 10
145.158800
 20
45.701040
 42
0.011936
  0
VERTEX
  8
0
 10
147.226783
 20
40.239870
 42
0.000000
  0
VERTEX
  8
0
 10
151.792634
 20
29.000000
 42
0.000000
  0
VERTEX
  8
0
 10
148.430244
 20
29.000000
 42
0.087601
  0
VERTEX
  8
0
 10
143.308192
 20
28.095668
 42
0.094209
  0
VERTEX
  8
0
 10
138.950024
 20
25.498780
 42
0.099883
  0
VERTEX
  8
0
 10
136.031837
 20
21.631682
 42
0.112305
  0
VERTEX
  8
0
 10
135.000000
 20
17.095708
 42
0.140380
  0
VERTEX
  8
0
 10
135.945570
 20
13.794190
 42
0.057780
  0
VERTEX
  8
0
 10
138.874707
 20
10.121981
 42
0.053206
  0
VERTEX
  8
0
 10
142.998142
 20
6.816422
 42
0.058230
  0
VERTEX
  8
0
 10
147.607414
 20
4.572205
 42
0.027544
  0
VERTEX
  8
0
 10
150.018712
 20
3.874377
 42
0.011736
  0
VERTEX
  8
0
 10
153.310828
 20
3.196202
 42
0.011571
  0
VERTEX
  8
0
 10
156.864555
 20
2.635293
 42
0.014901
  0
VERTEX
  8
0
 10
160.152853
 20
2.293384
 42
0.011518
  0
VERTEX
  8
0
 10
164.491983
 20
2.072898
 42
0.040853
  0
VERTEX
  8
0
 10
167.272354
 20
2.222981
 42
0.051615
  0
VERTEX
  8
0
 10
169.641590
 20
2.799577
 42
0.027251
  0
VERTEX
  8
0
 10
172.436299
 20
3.969163
 42
0.114291
  0
VERTEX
  8
0
 10
177.416972
 20
7.983957
 42
0.102649
  0
VERTEX
  8
0
 10
180.366016
 20
13.933438
 42
0.082437
  0
VERTEX
  8
0
 10
181.075519
 20
21.699895
 42
0.047243
  0
VERTEX
  8
0
 10
179.500000
 20
31.000000
 42
-0.045609
  0
VERTEX
  8
0
 10
178.305493
 20
37.914068
 42
-0.027348
  0
VERTEX
  8
0
 10
178.095011
 20
46.251772
 42
-0.024378
  0
VERTEX
  8
0
 10
178.834238
 20
55.686917
 42
-0.018401
  0
VERTEX
  8
0
 10
180.529222
 20
65.946440
 42
0.006134
  0
VERTEX
  8
0
 10
181.542338
 20
71.264149
 42
0.005070
  0
VERTEX
  8
0
 10
182.494728
 20
76.953783
 42
0.005122
  0
VERTEX
  8
0
 10
183.261992
 20
82.190989
 42
0.013659
  0
VERTEX
  8
0
 10
183.668633
 20
85.944819
 42
-0.013279
  0
VERTEX
  8
0
 10
184.000743
 20
89.032526
 42
-0.013746
  0
VERTEX
  8
0
 10
184.493463
 20
92.062694
 42
-0.013564
  0
VERTEX
  8
0
 10
185.062314
 20
94.657521
 42
-0.055968
  0
VERTEX
  8
0
 10
185.619701
 20
96.162225
 42
0.077300
  0
VERTEX
  8
0
 10
187.075762
 20
100.672257
 42
0.017730
  0
VERTEX
  8
0
 10
188.057163
 20
108.641151
 42
0.019219
  0
VERTEX
  8
0
 10
188.466864
 20
117.056138
 42
0.038471
  0
VERTEX
  8
0
 10
188.023427
 20
123.695726
 42
-0.005159
  0
VERTEX
  8
0
 10
187.187271
 20
129.932491
 42
-0.062911
  0
VERTEX
  8
0
 10
187.193764
 20
132.337535
 42
-0.159338
  0
VERTEX
  8
0
 10
187.873765
 20
133.765698
 42
-0.079921
  0
VERTEX
  8
0
 10
189.481112
 20
134.989891
 42
-0.035645
  0
VERTEX
  8
0
 10
190.972836
 20
135.656299
 42
-0.162293
  0
VERTEX
  8
0
 10
191.910403
 20
135.681711
 42
-0.132394
  0
VERTEX
  8
0
 10
192.782721
 20
135.137311
 42
-0.020773
  0
VERTEX
  8
0
 10
194.112435
 20
133.584191
 42
0.088572
  0
VERTEX
  8
0
 10
197.325467
 20
130.722666
 42
0.129543
  0
VERTEX
  8
0
 10
200.933115
 20
129.633263
 42
0.122821
  0
VERTEX
  8
0
 10
204.751577
 20
130.442371
 42
0.074992
  0
VERTEX
  8
0
 10
208.567215
 20
133.069209
 42
-0.060885
  0
VERTEX
  8
0
 10
210.025659
 20
134.134838
 42
-0.144320
  0
VERTEX
  8
0
 10
211.324489
 20
134.429005
 42
-0.061716
  0
VERTEX
  8
0
 10
213.206860
 20
134.072432
 42
-0.004826
  0
VERTEX
  8
0
 10
218.067215
 20
132.461018
 42
0.022487
  0
VERTEX
  8
0
 10
233.447180
 20
127.958010
 42
0.031233
  0
VERTEX
  8
0
 10
247.575306
 20
125.424888
 42
0.034576
  0
VERTEX
  8
0
 10
259.192170
 20
124.891972
 42
0.131525
  0
VERTEX
  8
0
 10
266.099722
 20
126.914451
 42
0.054436
  0
VERTEX
  8
0
 10
268.752545
 20
128.952763
 42
0.050495
  0
VERTEX
  8
0
 10
270.978612
 20
131.563790
 42
0.053877
  0
VERTEX
  8
0
 10
272.489134
 20
134.345768
 42
0.097056
  0
VERTEX
  8
0
 10
272.993411
 20
136.881966
 42
0.164842
  0
VERTEX
  8
0
 10
271.271966
 20
142.008190
 42
0.081595
  0
VERTEX
  8
0
 10
266.224515
 20
146.779121
 42
0.042209
  0
VERTEX
  8
0
 10
256.694910
 20
152.110152
 42
0.009339
  0
VERTEX
  8
0
 10
239.500000
 20
159.522356
 42
-0.002403
  0
VERTEX
  8
0
 10
229.615700
 20
163.621549
 42
-0.039597
  0
VERTEX
  8
0
 10
226.443917
 20
165.261087
 42
-0.142526
  0
VERTEX
  8
0
 10
225.138549
 20
166.715596
 42
-0.137125
  0
VERTEX
  8
0
 10
224.792161
 20
168.666550
 42
0.093558
  0
VERTEX
  8
0
 10
224.512813
 20
171.771076
 42
0.132856
  0
VERTEX
  8
0
 10
223.093904
 20
174.135621
 42
0.119970
  0
VERTEX
  8
0
 10
220.546210
 20
175.619326
 42
0.068120
  0
VERTEX
  8
0
 10
217.000000
 20
176.164454
 42
-0.043491
  0
VERTEX
  8
0
 10
214.569956
 20
176.416679
 42
-0.027456
  0
VERTEX
  8
0
 10
211.802255
 20
177.109399
 42
-0.023587
  0
VERTEX
  8
0
 10
208.685601
 20
178.237586
 42
-0.015258
  0
VERTEX
  8
0
 10
205.189844
 20
179.819672
 42
-0.004352
  0
VERTEX
  8
0
 10
200.584284
 20
182.125683
 42
-0.073258
  0
VERTEX
  8
0
 10
199.201091
 20
183.111419
 42
-0.323051
  0
VERTEX
  8
0
 10
199.048519
 20
183.947791
 42
-0.115468
  0
VERTEX
  8
0
 10
199.850014
 20
184.950323
 42
0.046084
  0
VERTEX
  8
0
 10
200.630075
 20
185.689602
 42
0.034873
  0
VERTEX
  8
0
 10
201.344755
 20
186.628909
 42
0.035716
  0
VERTEX
  8
0
 10
201.895196
 20
187.614595
 42
0.065852
  0
VERTEX
  8
0
 10
202.171653
 20
188.488516
 42
-0.085303
  0
VERTEX
  8
0
 10
202.454682
 20
189.275933
 42
-0.066922
  0
VERTEX
  8
0
 10
203.003895
 20
190.000043
 42
-0.066900
  0
VERTEX
  8
0
 10
203.725070
 20
190.553598
 42
-0.085119
  0
VERTEX
  8
0
 10
204.511484
 20
190.841754
 42
0.083704
  0
VERTEX
  8
0
 10
206.786399
 20
191.668083
 42
0.096948
  0
VERTEX
  8
0
 10
208.533655
 20
193.166037
 42
0.093925
  0
VERTEX
  8
0
 10
209.624783
 20
195.254366
 42
0.073677
  0
VERTEX
  8
0
 10
210.000000
 20
197.786910
 42
0.050312
  0
VERTEX
  8
0
 10
209.810828
 20
199.662137
 42
0.070458
  0
VERTEX
  8
0
 10
209.247266
 20
201.246415
 42
0.058711
  0
VERTEX
  8
0
 10
208.177847
 20
202.810471
 42
0.024415
  0
VERTEX
  8
0
 10
206.401722
 20
204.657459
 42
-0.011226
  0
VERTEX
  8
0
 10
204.245007
 20
206.784991
 42
-0.103951
  0
VERTEX
  8
0
 10
203.549737
 20
207.887582
 42
-0.184146
  0
VERTEX
  8
0
 10
203.558618
 20
208.900370
 42
-0.051811
  0
VERTEX
  8
0
 10
204.296251
 20
210.329384
 42
0.044165
  0
VERTEX
  8
0
 10
205.029040
 20
211.697395
 42
0.008052
  0
VERTEX
  8
0
 10
206.115904
 20
214.361226
 42
0.008608
  0
VERTEX
  8
0
 10
207.287518
 20
217.530750
 42
0.007719
  0
VERTEX
  8
0
 10
208.394529
 20
220.855470
 42
0.038404
  0
VERTEX
  8
0
 10
210.177421
 20
228.497220
 42
0.028500
  0
VERTEX
  8
0
 10
211.004076
 20
237.131001
 42
0.029064
  0
VERTEX
  8
0
 10
210.840743
 20
245.446428
 42
0.054292
  0
VERTEX
  8
0
 10
209.595456
 20
252.055787
 42
-0.019349
  0
VERTEX
  8
0
 10
208.877316
 20
254.799318
 42
-0.071606
  0
VERTEX
  8
0
 10
208.744715
 20
256.579451
 42
-0.071327
  0
VERTEX
  8
0
 10
209.119342
 20
258.328260
 42
-0.019104
  0
VERTEX
  8
0
 10
210.207619
 20
260.963450
 42
0.032152
  0
VERTEX
  8
0
 10
211.172636
 20
263.484584
 42
0.040649
  0
VERTEX
  8
0
 10
211.717255
 20
265.919698
 42
0.033452
  0
VERTEX
  8
0
 10
211.921804
 20
268.759782
 42
0.013869
  0
VERTEX
  8
0
 10
211.834324
 20
272.609758
 42
0.011603
  0
VERTEX
  8
0
 10
211.526692
 20
276.778607
 42
0.052107
  0
VERTEX
  8
0
 10
211.039033
 20
279.172206
 42
0.074433
  0
VERTEX
  8
0
 10
210.156921
 20
280.981217
 42
0.040446
  0
VERTEX
  8
0
 10
208.592444
 20
282.903509
 42
0.079869
  0
VERTEX
  8
0
 10
204.727637
 20
285.825817
 42
0.138782
  0
VERTEX
  8
0
 10
200.824564
 20
286.666767
 42
0.131315
  0
VERTEX
  8
0
 10
196.906884
 20
285.347920
 42
0.067943
  0
VERTEX
  8
0
 10
193.000000
 20
281.910683
 42
0.000000
  0
VERTEX
  8
0
 10
190.500000
 20
279.023102
 42
0.000000
  0
VERTEX
  8
0
 10
186.000000
 20
280.669005
 42
0.052400
  0
VERTEX
  8
0
 10
181.581244
 20
281.778200
 42
0.024512
  0
VERTEX
  8
0
 10
175.700164
 20
282.322089
 42
0.024310
  0
VERTEX
  8
0
 10
169.555864
 20
282.288869
 42
0.036703
  0
VERTEX
  8
0
 10
164.250000
 20
281.609275
 42
-0.010019
  0
VERTEX
  8
0
 10
161.724564
 20
281.147829
 42
-0.104577
  0
VERTEX
  8
0
 10
160.677895
 20
281.197801
 42
-0.252993
  0
VERTEX
  8
0
 10
160.171507
 20
281.671152
 42
-0.081056
  0
VERTEX
  8
0
 10
160.000000
 20
282.722153
 42
0.091889
  0
VERTEX
  8
0
 10
159.809425
 20
283.750381
 42
0.022396
  0
VERTEX
  8
0
 10
159.116907
 20
285.338027
 42
0.022204
  0
VERTEX
  8
0
 10
158.144450
 20
287.116004
 42
0.020507
  0
VERTEX
  8
0
 10
156.993728
 20
288.849962
 42
0.020548
  0
VERTEX
  8
0
 10
155.274365
 20
291.029109
 42
0.070737
  0
VERTEX
  8
0
 10
153.924499
 20
292.214146
 42
0.092659
  0
VERTEX
  8
0
 10
152.505987
 20
292.804600
 42
0.052459
  0
VERTEX
  8
0
 10
150.648715
 20
293.000000
 42
0.091130
  0
VERTEX
  8
0
 10
147.538897
 20
292.428459
 42
0.137317
  0
VERTEX
  8
0
 10
145.336109
 20
290.800537
 42
0.115749
  0
VERTEX
  8
0
 10
144.061014
 20
288.027252
 42
0.053944
  0
VERTEX
  8
0
 10
143.692512
 20
284.063404
 42
0.029635
  0
VERTEX
  8
0
 10
143.850996
 20
281.935357
 42
0.025035
  0
VERTEX
  8
0
 10
144.263311
 20
279.715516
 42
0.025895
  0
VERTEX
  8
0
 10
144.860606
 20
277.680462
 42
0.049114
  0
VERTEX
  8
0
 10
145.580335
 20
276.133290
 42
-0.015642
  0
VERTEX
  8
0
 10
146.243347
 20
274.926214
 42
-0.024279
  0
VERTEX
  8
0
 10
146.730414
 20
273.842683
 42
-0.021107
  0
VERTEX
  8
0
 10
147.033587
 20
272.962449
 42
-0.286326
  0
VERTEX
  8
0
 10
146.947433
 20
272.649009
 42
-0.052331
  0
VERTEX
  8
0
 10
145.091744
 20
271.266620
 42
-0.002879
  0
VERTEX
  8
0
 10
138.826409
 20
267.596205
 42
-0.004070
  0
VERTEX
  8
0
 10
132.650519
 20
264.092551
 42
-0.028037
  0
VERTEX
  8
0
 10
129.513589
 20
262.570124
 42
0.054709
  0
VERTEX
  8
0
 10
127.175817
 20
261.277509
 42
0.182951
  0
VERTEX
  8
0
 10
126.211092
 20
259.850601
 42
0.141636
  0
VERTEX
  8
0
 10
126.306696
 20
257.892972
 42
0.028701
  0
VERTEX
  8
0
 10
127.634892
 20
254.639449
 42
-0.062080
  0
VERTEX
  8
0
 10
128.795924
 20
251.147261
 42
-0.139631
  0
VERTEX
  8
0
 10
128.573433
 20
248.389360
 42
-0.155627
  0
VERTEX
  8
0
 10
126.971392
 20
246.353647
 42
-0.083252
  0
VERTEX
  8
0
 10
124.032164
 20
245.008661
 42
0.015454
  0
VERTEX
  8
0
 10
122.482042
 20
244.539427
 42
0.019824
  0
VERTEX
  8
0
 10
121.089775
 20
244.008227
 42
0.018049
  0
VERTEX
  8
0
 10
119.980529
 20
243.485711
 42
0.136056
  0
VERTEX
  8
0
 10
119.559126
 20
243.095667
 42
-0.204842
  0
VERTEX
  8
0
 10
119.151196
 20
242.808655
 42
-0.039755
  0
VERTEX
  8
0
 10
118.238051
 20
242.689677
 42
-0.036400
  0
VERTEX
  8
0
 10
117.076474
 20
242.716015
 42
-0.026581
  0
VERTEX
  8
0
 10
115.799532
 20
242.907164
 42
-0.060972
  0
VERTEX
  8
0
 10
113.938348
 20
243.531245
 42
-0.117411
  0
VERTEX
  8
0
 10
112.721558
 20
244.513358
 42
-0.068896
  0
VERTEX
  8
0
 10
111.701669
 20
246.293006
 42
-0.011158
  0
VERTEX
  8
0
 10
110.291274
 20
250.034322
 42
-0.013789
  0
VERTEX
  8
0
 10
108.132246
 20
256.760188
 42
-0.014000
  0
VERTEX
  8
0
 10
106.359177
 20
263.560970
 42
-0.014019
  0
VERTEX
  8
0
 10
104.971565
 20
270.441489
 42
-0.013913
  0
VERTEX
  8
0
 10
103.967733
 20
277.406321
 42
0.013360
  0
VERTEX
  8
0
 10
102.949371
 20
284.527755
 42
0.050086
  0
VERTEX
  8
0
 10
101.751048
 20
288.877174
 42
0.079603
  0
VERTEX
  8
0
 10
100.060515
 20
291.777034
 42
0.082826
  0
VERTEX
  8
0
 10
97.568357
 20
293.957753
 42
0.041307
  0
VERTEX
  8
0
 10
94.776048
 20
295.379690
 42
0.095219
  0
VERTEX
  8
0
 10
92.475726
 20
295.842576
 42
0.089949
  0
VERTEX
  8
0
 10
90.085821
 20
295.430594
 42
0.034106
  0
SEQEND
  0
POLYLINE
  8
0
 66
1
 70
1
  0
VERTEX
  8
0
 10
95.387004
 20
293.042961
 42
-0.112783
  0
VERTEX
  8
0
 10
97.609637
 20
291.561415
 42
-0.077487
  0
VERTEX
  8
0
 10
99.335509
 20
289.057979
 42
-0.057193
  0
VERTEX
  8
0
 10
100.599579
 20
285.422772
 42
-0.026730
  0
VERTEX
  8
0
 10
101.429119
 20
280.500000
 42
0.011643
  0
VERTEX
  8
0
 10
102.516737
 20
272.598017
 42
0.011501
  0
VERTEX
  8
0
 10
103.974763
 20
264.722688
 42
0.012078
  0
VERTEX
  8
0
 10
105.683159
 20
257.433623
 42
0.019487
  0
VERTEX
  8
0
 10
107.526219
 20
251.332028
 42
-0.003464
  0
VERTEX
  8
0
 10
108.473976
 20
248.522862
 42
-0.004943
  0
VERTEX
  8
0
 10
109.273327
 20
246.015137
 42
-0.002808
  0
VERTEX
  8
0
 10
109.913955
 20
243.892173
 42
-0.071988
  0
VERTEX
  8
0
 10
110.000000
 20
243.297636
 42
-0.184654
  0
VERTEX
  8
0
 10
109.833554
 20
242.862307
 42
-0.027767
  0
VERTEX
  8
0
 10
109.160204
 20
242.189646
 42
-0.028062
  0
VERTEX
  8
0
 10
108.235943
 20
241.452483
 42
-0.020899
  0
VERTEX
  8
0
 10
107.141120
 20
240.742433
 42
0.049233
  0
VERTEX
  8
0
 10
103.564446
 20
238.123931
 42
0.023964
  0
VERTEX
  8
0
 10
99.529545
 20
234.146277
 42
0.023576
  0
VERTEX
  8
0
 10
95.709948
 20
229.588238
 42
0.032400
  0
VERTEX
  8
0
 10
92.755779
 20
225.133442
 42
0.000000
  0
VERTEX
  8
0
 10
89.677520
 20
219.766883
 42
0.000000
  0
VERTEX
  8
0
 10
87.908279
 20
224.633442
 42
-0.013875
  0
VERTEX
  8
0
 10
87.047167
 20
227.223717
 42
-0.003927
  0
VERTEX
  8
0
 10
85.850896
 20
231.301699
 42
-0.003954
  0
VERTEX
  8
0
 10
84.571600
 20
235.931680
 42
-0.004170
  0
VERTEX
  8
0
 10
83.388887
 20
240.500000
 42
-0.011055
  0
VERTEX
  8
0
 10
81.963854
 20
246.787402
 42
-0.021396
  0
VERTEX
  8
0
 10
81.152897
 20
251.877624
 42
-0.019944
  0
VERTEX
  8
0
 10
80.747814
 20
257.245602
 42
-0.008340
  0
VERTEX
  8
0
 10
80.611723
 20
264.500000
 42
-0.022767
  0
VERTEX
  8
0
 10
81.140345
 20
276.659330
 42
-0.060556
  0
VERTEX
  8
0
 10
82.948337
 20
285.144522
 42
-0.094912
  0
VERTEX
  8
0
 10
86.050016
 20
290.559731
 42
-0.157285
  0
VERTEX
  8
0
 10
90.500000
 20
293.284169
 42
0.003131
  0
VERTEX
  8
0
 10
91.279708
 20
293.477967
 42
0.004514
  0
VERTEX
  8
0
 10
91.966814
 20
293.659948
 42
0.002429
  0
VERTEX
  8
0
 10
92.545059
 20
293.821721
 42
0.070781
  0
VERTEX
  8
0
 10
92.684900
 20
293.883999
 42
-0.214453
  0
VERTEX
  8
0
 10
92.828978
 20
293.903979
 42
-0.004260
  0
VERTEX
  8
0
 10
93.554915
 20
293.684794
 42
-0.009350
  0
VERTEX
  8
0
 10
94.408862
 20
293.401380
 42
-0.006043
  0
SEQEND
  0
POLYLINE
  8
0
 66
1
 70
1
  0
VERTEX
  8
0
 10
154.229782
 20
289.033894
 42
-0.069146
  0
VERTEX
  8
0
 10
155.968384
 20
287.227244
 42
-0.030386
  0
VERTEX
  8
0
 10
157.756135
 20
284.421953
 42
-0.023148
  0
VERTEX
  8
0
 10
159.141191
 20
281.628772
 42
-0.347791
  0
VERTEX
  8
0
 10
158.884602
 20
280.645901
 42
-0.032794
  0
VERTEX
  8
0
 10
157.531445
 20
279.758467
 42
-0.002248
  0
VERTEX
  8
0
 10
153.531068
 20
277.518734
 42
-0.000750
  0
VERTEX
  8
0
 10
149.207876
 20
275.132201
 42
-0.126392
  0
VERTEX
  8
0
 10
148.693250
 20
275.000000
 42
-0.302957
  0
VERTEX
  8
0
 10
148.136354
 20
275.371532
 42
-0.010381
  0
VERTEX
  8
0
 10
147.132159
 20
277.934959
 42
-0.018477
  0
VERTEX
  8
0
 10
146.183479
 20
280.839907
 42
-0.021033
  0
VERTEX
  8
0
 10
145.497378
 20
283.684853
 42
-0.037407
  0
VERTEX
  8
0
 10
145.297730
 20
285.343291
 42
-0.078230
  0
VERTEX
  8
0
 10
145.441509
 20
286.631944
 42
-0.083053
  0
VERTEX
  8
0
 10
145.965192
 20
287.764884
 42
-0.046707
  0
VERTEX
  8
0
 10
146.934853
 20
288.934853
 42
-0.053583
  0
VERTEX
  8
0
 10
148.760412
 20
290.406088
 42
-0.140334
  0
VERTEX
  8
0
 10
150.357497
 20
290.886896
 42
-0.128797
  0
VERTEX
  8
0
 10
152.055514
 20
290.466667
 42
-0.041956
  0
SEQEND
  0
POLYLINE
  8
0
 66
1
 70
1
  0
VERTEX
  8
0
 10
205.150400
 20
282.919509
 42
-0.206981
  0
VERTEX
  8
0
 10
208.999669
 20
278.072854
 42
-0.081487
  0
VERTEX
  8
0
 10
209.871966
 20
269.412826
 42
-0.076702
  0
VERTEX
  8
0
 10
207.891526
 20
260.358267
 42
-0.138566
  0
VERTEX
  8
0
 10
203.369201
 20
254.332437
 42
0.018134
  0
VERTEX
  8
0
 10
200.968030
 20
252.359257
 42
0.223457
  0
VERTEX
  8
0
 10
200.511346
 20
251.299759
 42
0.553411
  0
VERTEX
  8
0
 10
201.070790
 20
250.974100
 42
0.024076
  0
VERTEX
  8
0
 10
203.433608
 20
252.364542
 42
-0.007910
  0
VERTEX
  8
0
 10
204.423544
 20
252.991016
 42
-0.010918
  0
VERTEX
  8
0
 10
205.332810
 20
253.519584
 42
-0.007743
  0
VERTEX
  8
0
 10
206.103417
 20
253.929869
 42
-0.118997
  0
VERTEX
  8
0
 10
206.393919
 20
254.000000
 42
-0.370067
  0
VERTEX
  8
0
 10
207.404013
 20
253.133764
 42
-0.010112
  0
VERTEX
  8
0
 10
208.232853
 20
246.930091
 42
-0.019136
  0
VERTEX
  8
0
 10
208.727888
 20
240.282315
 42
-0.029194
  0
VERTEX
  8
0
 10
208.598864
 20
234.500000
 42
-0.026998
  0
VERTEX
  8
0
 10
207.618994
 20
227.267664
 42
-0.031077
  0
VERTEX
  8
0
 10
205.891096
 20
220.522610
 42
-0.030974
  0
VERTEX
  8
0
 10
203.334541
 20
214.024693
 42
-0.026493
  0
VERTEX
  8
0
 10
199.873599
 20
207.532063
 42
-0.025572
  0
VERTEX
  8
0
 10
195.108264
 20
200.473820
 42
-0.160395
  0
VERTEX
  8
0
 10
191.584140
 20
198.022608
 42
-0.074327
  0
VERTEX
  8
0
 10
186.190946
 20
197.255586
 42
-0.002956
  0
VERTEX
  8
0
 10
166.263625
 20
197.515063
 42
-0.001446
  0
VERTEX
  8
0
 10
150.311288
 20
197.863258
 42
-0.016539
  0
VERTEX
  8
0
 10
144.033913
 20
198.226435
 42
-0.043867
  0
VERTEX
  8
0
 10
140.661675
 20
198.835008
 42
-0.154064
  0
VERTEX
  8
0
 10
138.828874
 20
200.014816
 42
-0.015140
  0
VERTEX
  8
0
 10
138.156694
 20
200.875837
 42
-0.013967
  0
VERTEX
  8
0
 10
137.518812
 20
201.799008
 42
-0.014118
  0
VERTEX
  8
0
 10
136.996944
 20
202.653123
 42
-0.044275
  0
VERTEX
  8
0
 10
136.715778
 20
203.263379
 42
0.056795
  0
VERTEX
  8
0
 10
136.502705
 20
203.697009
 42
0.104053
  0
VERTEX
  8
0
 10
136.227613
 20
203.976454
 42
0.153653
  0
VERTEX
  8
0
 10
135.938127
 20
204.060000
 42
0.180597
  0
VERTEX
  8
0
 10
135.674575
 20
203.954337
 42
0.235154
  0
VERTEX
  8
0
 10
135.528163
 20
203.577122
 42
0.037713
  0
VERTEX
  8
0
 10
135.663504
 20
202.774563
 42
0.034929
  0
VERTEX
  8
0
 10
135.984604
 20
201.779979
 42
0.024121
  0
VERTEX
  8
0
 10
136.478367
 20
200.704337
 42
-0.015295
  0
VERTEX
  8
0
 10
136.977040
 20
199.666689
 42
-0.028536
  0
VERTEX
  8
0
 10
137.305718
 20
198.794399
 42
-0.033556
  0
VERTEX
  8
0
 10
137.458693
 20
198.158842
 42
-0.464660
  0
VERTEX
  8
0
 10
137.324674
 20
198.000000
 42
-0.168700
  0
VERTEX
  8
0
 10
135.583534
 20
198.604671
 42
-0.008705
  0
VERTEX
  8
0
 10
130.910620
 20
202.429417
 42
-0.014814
  0
VERTEX
  8
0
 10
126.156346
 20
206.709424
 42
-0.023380
  0
VERTEX
  8
0
 10
122.370351
 20
210.681077
 42
-0.022550
  0
VERTEX
  8
0
 10
117.305039
 20
217.079528
 42
-0.062202
  0
VERTEX
  8
0
 10
114.551814
 20
222.115809
 42
-0.085242
  0
VERTEX
  8
0
 10
113.599137
 20
226.675482
 42
-0.077888
  0
VERTEX
  8
0
 10
114.172105
 20
231.444850
 42
0.000000
  0
VERTEX
  8
0
 10
115.316363
 20
235.500000
 42
0.000000
  0
VERTEX
  8
0
 10
115.990889
 20
232.500000
 42
0.071034
  0
VERTEX
  8
0
 10
117.975045
 20
227.276118
 42
0.052345
  0
VERTEX
  8
0
 10
121.522018
 20
222.194867
 42
0.049135
  0
VERTEX
  8
0
 10
126.317581
 20
217.649731
 42
0.046074
  0
VERTEX
  8
0
 10
132.007851
 20
214.015911
 42
-0.049685
  0
VERTEX
  8
0
 10
133.526334
 20
213.030726
 42
-0.028694
  0
VERTEX
  8
0
 10
135.147569
 20
211.573454
 42
-0.028268
  0
VERTEX
  8
0
 10
136.636004
 20
209.892451
 42
-0.039060
  0
VERTEX
  8
0
 10
137.756815
 20
208.218900
 42
0.101139
  0
VERTEX
  8
0
 10
142.667406
 20
202.547508
 42
0.239162
  0
VERTEX
  8
0
 10
148.009530
 20
201.541845
 42
0.183402
  0
VERTEX
  8
0
 10
153.071767
 20
205.359937
 42
0.062775
  0
VERTEX
  8
0
 10
157.022721
 20
213.830522
 42
-0.007861
  0
VERTEX
  8
0
 10
159.341204
 20
220.671337
 42
-0.040094
  0
VERTEX
  8
0
 10
160.987437
 20
224.331766
 42
-0.106417
  0
VERTEX
  8
0
 10
162.356390
 20
225.909004
 42
-0.347187
  0
VERTEX
  8
0
 10
163.647600
 20
225.877503
 42
0.053859
  0
VERTEX
  8
0
 10
164.237239
 20
225.486870
 42
0.069162
  0
VERTEX
  8
0
 10
164.850081
 20
225.270505
 42
0.084637
  0
VERTEX
  8
0
 10
165.391225
 20
225.252958
 42
0.164159
  0
VERTEX
  8
0
 10
165.774166
 20
225.443579
 42
0.282229
  0
VERTEX
  8
0
 10
165.872435
 20
225.857009
 42
0.071028
  0
VERTEX
  8
0
 10
165.552411
 20
226.505209
 42
0.051495
  0
VERTEX
  8
0
 10
164.905530
 20
227.268059
 42
0.031089
  0
VERTEX
  8
0
 10
164.000000
 20
228.034526
 42
-0.005714
  0
VERTEX
  8
0
 10
162.908982
 20
228.866830
 42
-0.003979
  0
VERTEX
  8
0
 10
161.695833
 20
229.830071
 42
-0.004014
  0
VERTEX
  8
0
 10
160.546603
 20
230.772901
 42
-0.008289
  0
VERTEX
  8
0
 10
159.666667
 20
231.531780
 42
0.046179
  0
VERTEX
  8
0
 10
158.010196
 20
232.754698
 42
0.458974
  0
VERTEX
  8
0
 10
157.287634
 20
232.517710
 42
0.256673
  0
VERTEX
  8
0
 10
157.405879
 20
231.439312
 42
0.035635
  0
VERTEX
  8
0
 10
158.877694
 20
229.630188
 42
0.000000
  0
VERTEX
  8
0
 10
161.096608
 20
227.268263
 42
0.000000
  0
VERTEX
  8
0
 10
158.508238
 20
224.192160
 42
-0.072200
  0
VERTEX
  8
0
 10
155.045548
 20
221.111126
 42
-0.031581
  0
VERTEX
  8
0
 10
149.698736
 20
218.050821
 42
-0.031383
  0
VERTEX
  8
0
 10
144.080576
 20
215.715381
 42
-0.082994
  0
VERTEX
  8
0
 10
139.800440
 20
215.000000
 42
-0.095049
  0
VERTEX
  8
0
 10
133.609961
 20
216.187532
 42
-0.067454
  0
VERTEX
  8
0
 10
127.436903
 20
219.671051
 42
-0.067115
  0
VERTEX
  8
0
 10
122.382793
 20
224.695924
 42
-0.091654
  0
VERTEX
  8
0
 10
119.472598
 20
230.404227
 42
-0.002140
  0
VERTEX
  8
0
 10
118.142346
 20
234.954940
 42
-0.164539
  0
VERTEX
  8
0
 10
118.176722
 20
235.701054
 42
-0.571782
  0
VERTEX
  8
0
 10
118.553992
 20
235.761850
 42
-0.006073
  0
VERTEX
  8
0
 10
120.583567
 20
233.250000
 42
0.074162
  0
VERTEX
  8
0
 10
122.897963
 20
231.070937
 42
0.115582
  0
VERTEX
  8
0
 10
125.433031
 20
230.066929
 42
0.115101
  0
VERTEX
  8
0
 10
128.158017
 20
230.291545
 42
0.073135
  0
VERTEX
  8
0
 10
131.027494
 20
231.704109
 42
0.057733
  0
VERTEX
  8
0
 10
134.529472
 20
234.768123
 42
0.147555
  0
VERTEX
  8
0
 10
135.961661
 20
237.781558
 42
0.189515
  0
VERTEX
  8
0
 10
135.323745
 20
240.582671
 42
0.104405
  0
VERTEX
  8
0
 10
132.750000
 20
243.049713
 42
0.000000
  0
VERTEX
  8
0
 10
129.500000
 20
245.070029
 42
0.000000
  0
VERTEX
  8
0
 10
134.609776
 20
244.424785
 42
0.037703
  0
VERTEX
  8
0
 10
138.829203
 20
244.212616
 42
0.104059
  0
VERTEX
  8
0
 10
141.710376
 20
244.894826
 42
0.157223
  0
VERTEX
  8
0
 10
143.381424
 20
246.457087
 42
0.127468
  0
VERTEX
  8
0
 10
144.000000
 20
248.844054
 42
0.046108
  0
VERTEX
  8
0
 10
143.888730
 20
250.048114
 42
0.032027
  0
VERTEX
  8
0
 10
143.552737
 20
251.373177
 42
0.032407
  0
VERTEX
  8
0
 10
143.061020
 20
252.614506
 42
0.055857
  0
VERTEX
  8
0
 10
142.477404
 20
253.558870
 42
0.011753
  0
VERTEX
  8
0
 10
141.535073
 20
254.703764
 42
0.518097
  0
VERTEX
  8
0
 10
141.271582
 20
254.678019
 42
0.168910
  0
VERTEX
  8
0
 10
141.186979
 20
254.220093
 42
0.003636
  0
VERTEX
  8
0
 10
141.553825
 20
251.935869
 42
-0.067509
  0
VERTEX
  8
0
 10
141.653363
 20
248.796783
 42
-0.218553
  0
VERTEX
  8
0
 10
140.618817
 20
247.045001
 42
-0.167081
  0
VERTEX
  8
0
 10
138.362030
 20
246.406062
 42
-0.037671
  0
VERTEX
  8
0
 10
134.349513
 20
246.932729
 42
0.000000
  0
VERTEX
  8
0
 10
129.500000
 20
247.945170
 42
0.000000
  0
VERTEX
  8
0
 10
134.500000
 20
247.496871
 42
0.000000
  0
VERTEX
  8
0
 10
139.500000
 20
247.048572
 42
0.000000
  0
VERTEX
  8
0
 10
137.000000
 20
249.157442
 42
0.000000
  0
VERTEX
  8
0
 10
134.500000
 20
251.266311
 42
0.000000
  0
VERTEX
  8
0
 10
136.875229
 20
250.526022
 42
0.018553
  0
VERTEX
  8
0
 10
137.938437
 20
250.237455
 42
0.110839
  0
VERTEX
  8
0
 10
138.509125
 20
250.233377
 42
0.358652
  0
VERTEX
  8
0
 10
138.692349
 20
250.465388
 42
0.134119
  0
VERTEX
  8
0
 10
138.566212
 20
250.892866
 42
0.189474
  0
VERTEX
  8
0
 10
137.361669
 20
251.794793
 42
0.093827
  0
VERTEX
  8
0
 10
135.427876
 20
251.951969
 42
0.092935
  0
VERTEX
  8
0
 10
133.554651
 20
251.390229
 42
0.181665
  0
VERTEX
  8
0
 10
132.524545
 20
250.250000
 42
-0.214079
  0
VERTEX
  8
0
 10
132.076446
 20
249.812251
 42
-0.322209
  0
VERTEX
  8
0
 10
131.570929
 20
249.952966
 42
-0.067903
  0
VERTEX
  8
0
 10
130.910967
 20
251.053202
 42
-0.009658
  0
VERTEX
  8
0
 10
129.918371
 20
253.500000
 42
-0.005818
  0
VERTEX
  8
0
 10
128.396830
 20
257.611602
 42
-0.091166
  0
VERTEX
  8
0
 10
128.157707
 20
259.084282
 42
-0.214201
  0
VERTEX
  8
0
 10
128.611988
 20
260.042053
 42
-0.053673
  0
VERTEX
  8
0
 10
130.075694
 20
261.040510
 42
-0.008080
  0
VERTEX
  8
0
 10
131.367449
 20
261.705212
 42
-0.340051
  0
VERTEX
  8
0
 10
131.654245
 20
261.648122
 42
-0.304295
  0
VERTEX
  8
0
 10
131.693616
 20
261.342096
 42
-0.007141
  0
VERTEX
  8
0
 10
130.994674
 20
259.990048
 42
0.063940
  0
VERTEX
  8
0
 10
130.410866
 20
258.456227
 42
0.149898
  0
VERTEX
  8
0
 10
130.485588
 20
257.244638
 42
0.447998
  0
VERTEX
  8
0
 10
131.060981
 20
257.021965
 42
0.136867
  0
VERTEX
  8
0
 10
131.839418
 20
257.740173
 42
-0.099008
  0
VERTEX
  8
0
 10
132.360199
 20
258.298131
 42
-0.019437
  0
VERTEX
  8
0
 10
133.510634
 20
259.057803
 42
-0.019924
  0
VERTEX
  8
0
 10
134.943520
 20
259.849722
 42
-0.017320
  0
VERTEX
  8
0
 10
136.502614
 20
260.565539
 42
0.007736
  0
VERTEX
  8
0
 10
138.937571
 20
261.627469
 42
0.140039
  0
VERTEX
  8
0
 10
139.577955
 20
262.172341
 42
0.352678
  0
VERTEX
  8
0
 10
139.527081
 20
262.732457
 42
0.042708
  0
VERTEX
  8
0
 10
138.526439
 20
263.604326
 42
-0.022405
  0
VERTEX
  8
0
 10
137.856497
 20
264.141856
 42
-0.063658
  0
VERTEX
  8
0
 10
137.461302
 20
264.590021
 42
-0.206715
  0
VERTEX
  8
0
 10
137.409457
 20
264.862768
 42
-0.351194
  0
VERTEX
  8
0
 10
137.580739
 20
265.000000
 42
0.129338
  0
VERTEX
  8
0
 10
138.227303
 20
265.170096
 42
0.003613
  0
VERTEX
  8
0
 10
140.751308
 20
266.621021
 42
0.007174
  0
VERTEX
  8
0
 10
143.703324
 20
268.403795
 42
0.004840
  0
VERTEX
  8
0
 10
147.021869
 20
270.518368
 42
-0.010603
  0
VERTEX
  8
0
 10
150.670998
 20
272.784885
 42
-0.008937
  0
VERTEX
  8
0
 10
154.625174
 20
275.031703
 42
-0.009042
  0
VERTEX
  8
0
 10
158.307737
 20
276.952457
 42
-0.024611
  0
VERTEX
  8
0
 10
161.000000
 20
278.133716
 42
-0.052032
  0
VERTEX
  8
0
 10
166.899891
 20
279.705020
 42
-0.039152
  0
VERTEX
  8
0
 10
173.598391
 20
280.228914
 42
-0.039864
  0
VERTEX
  8
0
 10
180.113635
 20
279.707243
 42
-0.064310
  0
VERTEX
  8
0
 10
185.442379
 20
278.128513
 42
0.000000
  0
VERTEX
  8
0
 10
190.000000
 20
276.112461
 42
0.000000
  0
VERTEX
  8
0
 10
190.000000
 20
269.638018
 42
0.012451
  0
VERTEX
  8
0
 10
190.107608
 20
265.317330
 42
0.036746
  0
VERTEX
  8
0
 10
190.472583
 20
262.371287
 42
0.058308
  0
VERTEX
  8
0
 10
191.062075
 20
260.551087
 42
0.293277
  0
VERTEX
  8
0
 10
191.920799
 20
260.000000
 42
0.386414
  0
VERTEX
  8
0
 10
192.183769
 20
260.238904
 42
0.012768
  0
VERTEX
  8
0
 10
192.291771
 20
261.772632
 42
0.018305
  0
VERTEX
  8
0
 10
192.307669
 20
263.720668
 42
0.010941
  0
VERTEX
  8
0
 10
192.191124
 20
266.034491
 42
-0.067247
  0
VERTEX
  8
0
 10
192.707115
 20
274.334867
 42
-0.115061
  0
VERTEX
  8
0
 10
195.557756
 20
280.625213
 42
-0.169536
  0
VERTEX
  8
0
 10
200.027126
 20
283.555381
 42
-0.186060
  0
SEQEND
  0
POLYLINE
  8
0
 66
1
 70
1
  0
VERTEX
  8
0
 10
136.943367
 20
193.964999
 42
-0.091230
  0
VERTEX
  8
0
 10
135.814014
 20
193.524860
 42
-0.172309
  0
VERTEX
  8
0
 10
134.859522
 20
193.670683
 42
-0.116089
  0
VERTEX
  8
0
 10
133.954596
 20
194.470817
 42
-0.031070
  0
VERTEX
  8
0
 10
132.937728
 20
196.116357
 42
-0.013754
  0
VERTEX
  8
0
 10
132.303718
 20
197.383608
 42
-0.497980
  0
VERTEX
  8
0
 10
132.435860
 20
197.632741
 42
-0.156998
  0
VERTEX
  8
0
 10
132.917091
 20
197.558830
 42
-0.003350
  0
VERTEX
  8
0
 10
135.077972
 20
196.459679
 42
-0.017505
  0
VERTEX
  8
0
 10
136.589487
 20
195.609715
 42
-0.095658
  0
VERTEX
  8
0
 10
137.279999
 20
194.981743
 42
-0.259100
  0
VERTEX
  8
0
 10
137.351558
 20
194.454936
 42
-0.162709
  0
SEQEND
  0
POLYLINE
  8
0
 66
1
 70
1
  0
VERTEX
  8
0
 10
119.900613
 20
166.440945
 42
0.005231
  0
VERTEX
  8
0
 10
136.704862
 20
148.926660
 42
0.029542
  0
VERTEX
  8
0
 10
146.293888
 20
140.231386
 42
0.054362
  0
VERTEX
  8
0
 10
153.919167
 20
135.355946
 42
0.057092
  0
VERTEX
  8
0
 10
162.293519
 20
132.335127
 42
0.023395
  0
VERTEX
  8
0
 10
167.450182
 20
131.368222
 42
0.022880
  0
VERTEX
  8
0
 10
172.713102
 20
130.878312
 42
0.024125
  0
VERTEX
  8
0
 10
177.614309
 20
130.884064
 42
0.041722
  0
VERTEX
  8
0
 10
181.651009
 20
131.423349
 42
-0.025505
  0
VERTEX
  8
0
 10
183.520007
 20
131.734957
 42
-0.184064
  0
VERTEX
  8
0
 10
184.388677
 20
131.513290
 42
-0.172659
  0
VERTEX
  8
0
 10
184.920036
 20
130.760989
 42
-0.021892
  0
VERTEX
  8
0
 10
185.378397
 20
128.796509
 42
-0.048570
  0
VERTEX
  8
0
 10
186.204453
 20
119.474351
 42
-0.023709
  0
VERTEX
  8
0
 10
185.534508
 20
107.543432
 42
-0.067692
  0
VERTEX
  8
0
 10
184.085067
 20
101.586462
 42
-0.741258
  0
VERTEX
  8
0
 10
182.564447
 20
101.706577
 42
0.140814
  0
VERTEX
  8
0
 10
179.871349
 20
106.683573
 42
0.114927
  0
VERTEX
  8
0
 10
174.740620
 20
109.944531
 42
0.098508
  0
VERTEX
  8
0
 10
167.983368
 20
110.903217
 42
0.078466
  0
VERTEX
  8
0
 10
160.770236
 20
109.350257
 42
0.090389
  0
VERTEX
  8
0
 10
153.612061
 20
104.971784
 42
0.060899
  0
VERTEX
  8
0
 10
147.280769
 20
97.751636
 42
0.058344
  0
VERTEX
  8
0
 10
142.619388
 20
88.834931
 42
0.065856
  0
VERTEX
  8
0
 10
140.383511
 20
79.439054
 42
0.000000
  0
VERTEX
  8
0
 10
139.723810
 20
73.000000
 42
0.000000
  0
VERTEX
  8
0
 10
135.423958
 20
73.000000
 42
-0.042055
  0
VERTEX
  8
0
 10
129.735404
 20
73.479309
 42
-0.024386
  0
VERTEX
  8
0
 10
123.032495
 20
74.956282
 42
-0.022931
  0
VERTEX
  8
0
 10
115.929425
 20
77.243333
 42
-0.022321
  0
VERTEX
  8
0
 10
109.000000
 20
80.189293
 42
-0.017053
  0
VERTEX
  8
0
 10
104.398886
 20
82.588921
 42
-0.028999
  0
VERTEX
  8
0
 10
100.753010
 20
84.940291
 42
-0.027709
  0
VERTEX
  8
0
 10
97.293367
 20
87.773604
 42
-0.014050
  0
VERTEX
  8
0
 10
93.250000
 20
91.691969
 42
-0.006957
  0
VERTEX
  8
0
 10
90.471880
 20
94.620281
 42
-0.010341
  0
VERTEX
  8
0
 10
88.129688
 20
97.266703
 42
-0.005792
  0
VERTEX
  8
0
 10
86.245893
 20
99.538853
 42
-0.171821
  0
VERTEX
  8
0
 10
86.000000
 20
100.233275
 42
0.082349
  0
VERTEX
  8
0
 10
85.911289
 20
100.768246
 42
0.030113
  0
VERTEX
  8
0
 10
85.619487
 20
101.480433
 42
0.028875
  0
VERTEX
  8
0
 10
85.200393
 20
102.235325
 42
0.030655
  0
VERTEX
  8
0
 10
84.704637
 20
102.921259
 42
-0.053866
  0
VERTEX
  8
0
 10
84.085469
 20
103.867360
 42
-0.011307
  0
VERTEX
  8
0
 10
83.225101
 20
105.651870
 42
-0.011731
  0
VERTEX
  8
0
 10
82.317961
 20
107.778594
 42
-0.010869
  0
VERTEX
  8
0
 10
81.486938
 20
110.000000
 42
-0.064438
  0
VERTEX
  8
0
 10
79.932952
 20
117.379621
 42
-0.019564
  0
VERTEX
  8
0
 10
79.478009
 20
128.826130
 42
-0.020136
  0
VERTEX
  8
0
 10
79.941582
 20
140.507010
 42
-0.048732
  0
VERTEX
  8
0
 10
81.463530
 20
149.000000
 42
-0.031794
  0
VERTEX
  8
0
 10
84.509533
 20
157.658473
 42
-0.025875
  0
VERTEX
  8
0
 10
88.818659
 20
166.498153
 42
-0.026485
  0
VERTEX
  8
0
 10
93.842076
 20
174.541437
 42
-0.042193
  0
VERTEX
  8
0
 10
99.035885
 20
180.763503
 42
0.000000
  0
VERTEX
  8
0
 10
102.263718
 20
184.027006
 42
0.000000
  0
VERTEX
  8
0
 10
106.881859
 20
179.704448
 42
-0.008008
  0
VERTEX
  8
0
 10
109.218970
 20
177.445626
 42
-0.002582
  0
VERTEX
  8
0
 10
112.611101
 20
174.025239
 42
-0.002574
  0
VERTEX
  8
0
 10
116.345703
 20
170.181034
 42
-0.002885
  0
SEQEND
  0
POLYLINE
  8
0
 66
1
 70
1
  0
VERTEX
  8
0
 10
218.434276
 20
166.062641
 42
0.011181
  0
VERTEX
  8
0
 10
220.734387
 20
165.029071
 42
0.002312
  0
VERTEX
  8
0
 10
224.830693
 20
163.319663
 42
0.002429
  0
VERTEX
  8
0
 10
229.607657
 20
161.379186
 42
0.002287
  0
VERTEX
  8
0
 10
234.500000
 20
159.445392
 42
-0.008614
  0
VERTEX
  8
0
 10
246.932677
 20
154.348295
 42
-0.013341
  0
VERTEX
  8
0
 10
257.463446
 20
149.480553
 42
-0.012207
  0
VERTEX
  8
0
 10
265.667859
 20
145.166606
 42
-0.099271
  0
VERTEX
  8
0
 10
268.879108
 20
142.426559
 42
-0.126402
  0
VERTEX
  8
0
 10
270.811070
 20
138.042165
 42
-0.159078
  0
VERTEX
  8
0
 10
270.143196
 20
133.680235
 42
-0.131062
  0
VERTEX
  8
0
 10
266.813720
 20
129.945440
 42
-0.074930
  0
VERTEX
  8
0
 10
261.292673
 20
127.396705
 42
-0.020600
  0
VERTEX
  8
0
 10
257.999704
 20
126.584867
 42
-0.042312
  0
VERTEX
  8
0
 10
255.363183
 20
126.277786
 42
-0.036263
  0
VERTEX
  8
0
 10
252.465752
 20
126.396991
 42
-0.011582
  0
VERTEX
  8
0
 10
248.190164
 20
126.985464
 42
-0.014462
  0
VERTEX
  8
0
 10
239.153740
 20
128.712682
 42
-0.012582
  0
VERTEX
  8
0
 10
229.798900
 20
131.031192
 42
-0.012335
  0
VERTEX
  8
0
 10
220.373004
 20
133.872524
 42
-0.012429
  0
VERTEX
  8
0
 10
211.122635
 20
137.168701
 42
0.000000
  0
VERTEX
  8
0
 10
199.860738
 20
141.500000
 42
0.000000
  0
VERTEX
  8
0
 10
200.267443
 20
146.000000
 42
-0.060309
  0
VERTEX
  8
0
 10
201.288620
 20
150.776878
 42
-0.032407
  0
VERTEX
  8
0
 10
203.615500
 20
156.344487
 42
-0.032444
  0
VERTEX
  8
0
 10
206.617869
 20
161.521683
 42
-0.065060
  0
VERTEX
  8
0
 10
209.730452
 20
165.068195
 42
-0.008967
  0
VERTEX
  8
0
 10
211.056905
 20
166.191360
 42
-0.012703
  0
VERTEX
  8
0
 10
212.279504
 20
167.138782
 42
-0.008810
  0
VERTEX
  8
0
 10
213.322861
 20
167.877737
 42
-0.150782
  0
VERTEX
  8
0
 10
213.719072
 20
168.000000
 42
-0.092404
  0
VERTEX
  8
0
 10
214.141587
 20
167.921243
 42
-0.005319
  0
VERTEX
  8
0
 10
215.372073
 20
167.430901
 42
-0.007956
  0
VERTEX
  8
0
 10
216.829548
 20
166.804776
 42
-0.005753
  0
SEQEND
  0
POLYLINE
  8
0
 66
1
 70
1
  0
VERTEX
  8
0
 10
77.391028
 20
112.750000
 42
0.067084
  0
VERTEX
  8
0
 10
79.742419
 20
105.668070
 42
0.035794
  0
VERTEX
  8
0
 10
84.384429
 20
97.674103
 42
0.034311
  0
VERTEX
  8
0
 10
90.499072
 20
89.896353
 42
0.039488
  0
VERTEX
  8
0
 10
97.359770
 20
83.414481
 42
0.000000
  0
VERTEX
  8
0
 10
102.219539
 20
79.500000
 42
0.000000
  0
VERTEX
  8
0
 10
97.524917
 20
78.820760
 42
0.054506
  0
VERTEX
  8
0
 10
93.307853
 20
77.732318
 42
0.059034
  0
VERTEX
  8
0
 10
89.546147
 20
75.776673
 42
0.059353
  0
VERTEX
  8
0
 10
86.362182
 20
73.006993
 42
0.056126
  0
VERTEX
  8
0
 10
83.848976
 20
69.517500
 42
0.043725
  0
VERTEX
  8
0
 10
82.662490
 20
66.893398
 42
0.042206
  0
VERTEX
  8
0
 10
81.933357
 20
64.071860
 42
0.026709
  0
VERTEX
  8
0
 10
81.486307
 20
60.205591
 42
0.006518
  0
VERTEX
  8
0
 10
81.174036
 20
53.795216
 42
-0.013779
  0
VERTEX
  8
0
 10
80.605202
 20
44.805891
 42
-0.112268
  0
VERTEX
  8
0
 10
79.339749
 20
40.913746
 42
-0.205384
  0
VERTEX
  8
0
 10
76.844143
 20
39.102886
 42
-0.064274
  0
VERTEX
  8
0
 10
72.142905
 20
38.658670
 42
-0.103408
  0
VERTEX
  8
0
 10
61.105173
 20
41.362662
 42
-0.077125
  0
VERTEX
  8
0
 10
50.733707
 20
48.462363
 42
-0.087063
  0
VERTEX
  8
0
 10
44.035287
 20
57.405033
 42
-0.211994
  0
VERTEX
  8
0
 10
43.621181
 20
65.455198
 42
-0.138435
  0
VERTEX
  8
0
 10
44.854659
 20
67.106606
 42
-0.054506
  0
VERTEX
  8
0
 10
47.303773
 20
68.592178
 42
-0.050866
  0
VERTEX
  8
0
 10
50.329280
 20
69.644374
 42
-0.058328
  0
VERTEX
  8
0
 10
53.367435
 20
70.000000
 42
-0.065358
  0
VERTEX
  8
0
 10
56.942051
 20
69.530738
 42
-0.034147
  0
VERTEX
  8
0
 10
61.198996
 20
68.075831
 42
-0.034174
  0
VERTEX
  8
0
 10
65.178323
 20
66.074876
 42
-0.071757
  0
VERTEX
  8
0
 10
67.869465
 20
63.909738
 42
0.029503
  0
VERTEX
  8
0
 10
68.727145
 20
63.091637
 42
0.046731
  0
VERTEX
  8
0
 10
69.559333
 20
62.510747
 42
0.059992
  0
VERTEX
  8
0
 10
70.252687
 20
62.220729
 42
0.271845
  0
VERTEX
  8
0
 10
70.660050
 20
62.326716
 42
0.375835
  0
VERTEX
  8
0
 10
70.735143
 20
63.456083
 42
0.033938
  0
VERTEX
  8
0
 10
68.711531
 20
65.761184
 42
0.036116
  0
VERTEX
  8
0
 10
65.908802
 20
68.171592
 42
0.041063
  0
VERTEX
  8
0
 10
62.901174
 20
70.040519
 42
-0.041820
  0
VERTEX
  8
0
 10
60.778024
 20
71.364291
 42
-0.113003
  0
VERTEX
  8
0
 10
59.634379
 20
72.709365
 42
-0.068702
  0
VERTEX
  8
0
 10
58.890553
 20
74.796200
 42
-0.008949
  0
VERTEX
  8
0
 10
58.009096
 20
79.446823
 42
-0.047172
  0
VERTEX
  8
0
 10
57.178438
 20
90.480541
 42
-0.075383
  0
VERTEX
  8
0
 10
58.770941
 20
99.779367
 42
-0.087366
  0
VERTEX
  8
0
 10
62.775955
 20
107.209385
 42
-0.089556
  0
VERTEX
  8
0
 10
69.048885
 20
112.750000
 42
-0.009038
  0
VERTEX
  8
0
 10
71.189083
 20
113.994726
 42
-0.011961
  0
VERTEX
  8
0
 10
73.183741
 20
115.045312
 42
-0.009410
  0
VERTEX
  8
0
 10
74.873845
 20
115.845192
 42
-0.106201
  0
VERTEX
  8
0
 10
75.594472
 20
116.000000
 42
-0.213913
  0
VERTEX
  8
0
 10
76.091725
 20
115.777061
 42
-0.055775
  0
VERTEX
  8
0
 10
76.610176
 20
115.045312
 42
-0.046500
  0
VERTEX
  8
0
 10
77.069475
 20
113.994446
 42
-0.033139
  0
SEQEND
  0
POLYLINE
  8
0
 66
1
 70
1
  0
VERTEX
  8
0
 10
174.167403
 20
106.594624
 42
-0.076249
  0
VERTEX
  8
0
 10
175.377546
 20
106.124781
 42
-0.043158
  0
VERTEX
  8
0
 10
176.670625
 20
105.223321
 42
-0.040304
  0
VERTEX
  8
0
 10
177.898405
 20
104.019293
 42
-0.040278
  0
VERTEX
  8
0
 10
178.917403
 20
102.633644
 42
-0.105612
  0
VERTEX
  8
0
 10
180.523128
 20
98.139124
 42
-0.032013
  0
VERTEX
  8
0
 10
181.022732
 20
90.876492
 42
-0.028784
  0
VERTEX
  8
0
 10
180.554453
 20
82.027923
 42
-0.021049
  0
VERTEX
  8
0
 10
179.059349
 20
72.301107
 42
0.011261
  0
VERTEX
  8
0
 10
176.867817
 20
59.692010
 42
0.025041
  0
VERTEX
  8
0
 10
175.899940
 20
49.996134
 42
0.029524
  0
VERTEX
  8
0
 10
175.983436
 20
41.307070
 42
0.023530
  0
VERTEX
  8
0
 10
177.065664
 20
31.994474
 42
-0.009114
  0
VERTEX
  8
0
 10
177.743450
 20
27.337136
 42
-0.010329
  0
VERTEX
  8
0
 10
178.219372
 20
22.848377
 42
-0.009618
  0
VERTEX
  8
0
 10
178.470880
 20
19.027868
 42
-0.054829
  0
VERTEX
  8
0
 10
178.342858
 20
17.000000
 42
-0.083562
  0
VERTEX
  8
0
 10
175.987525
 20
10.327402
 42
-0.141762
  0
VERTEX
  8
0
 10
171.821360
 20
6.180520
 42
-0.117639
  0
VERTEX
  8
0
 10
165.466716
 20
4.440762
 42
-0.047897
  0
VERTEX
  8
0
 10
156.462442
 20
5.006000
 42
-0.042948
  0
VERTEX
  8
0
 10
148.829746
 20
6.908314
 42
-0.072567
  0
VERTEX
  8
0
 10
142.977841
 20
9.917636
 42
-0.094767
  0
VERTEX
  8
0
 10
139.299101
 20
13.772945
 42
-0.144237
  0
VERTEX
  8
0
 10
138.000000
 20
18.182608
 42
-0.221359
  0
VERTEX
  8
0
 10
140.306844
 20
23.137938
 42
-0.121013
  0
VERTEX
  8
0
 10
146.441743
 20
26.166466
 42
-0.091553
  0
VERTEX
  8
0
 10
154.889057
 20
26.463153
 42
-0.079502
  0
VERTEX
  8
0
 10
163.346905
 20
23.789629
 42
0.013307
  0
VERTEX
  8
0
 10
164.854149
 20
23.083324
 42
0.020424
  0
VERTEX
  8
0
 10
166.197661
 20
22.561044
 42
0.015814
  0
VERTEX
  8
0
 10
167.297603
 20
22.222844
 42
0.269255
  0
VERTEX
  8
0
 10
167.649568
 20
22.316234
 42
0.445987
  0
VERTEX
  8
0
 10
167.599265
 20
23.253379
 42
0.028108
  0
VERTEX
  8
0
 10
165.077527
 20
25.061087
 42
0.031662
  0
VERTEX
  8
0
 10
161.820460
 20
26.850766
 42
0.038026
  0
VERTEX
  8
0
 10
158.553229
 20
28.092222
 42
-0.030985
  0
VERTEX
  8
0
 10
155.963337
 20
29.034843
 42
-0.092615
  0
VERTEX
  8
0
 10
154.409250
 20
30.088298
 42
-0.076376
  0
VERTEX
  8
0
 10
153.179265
 20
31.747476
 42
-0.016697
  0
VERTEX
  8
0
 10
151.621546
 20
34.955181
 42
-0.012630
  0
VERTEX
  8
0
 10
148.874446
 20
41.573648
 42
-0.016850
  0
VERTEX
  8
0
 10
146.738363
 20
47.720136
 42
-0.016676
  0
VERTEX
  8
0
 10
145.004891
 20
54.046920
 42
-0.011979
  0
VERTEX
  8
0
 10
143.476295
 20
61.214376
 42
-0.009203
  0
VERTEX
  8
0
 10
142.577885
 20
66.519420
 42
-0.026389
  0
VERTEX
  8
0
 10
142.217560
 20
70.238443
 42
-0.032040
  0
VERTEX
  8
0
 10
142.284639
 20
73.552390
 42
-0.019982
  0
VERTEX
  8
0
 10
142.766239
 20
77.408326
 42
-0.057200
  0
VERTEX
  8
0
 10
145.758347
 20
87.873208
 42
-0.062275
  0
VERTEX
  8
0
 10
150.987442
 20
97.066591
 42
-0.069430
  0
VERTEX
  8
0
 10
157.661944
 20
103.811110
 42
-0.116020
  0
VERTEX
  8
0
 10
164.912550
 20
107.057480
 42
-0.015779
  0
VERTEX
  8
0
 10
167.298442
 20
107.438619
 42
-0.044235
  0
VERTEX
  8
0
 10
168.988000
 20
107.503599
 42
-0.034986
  0
VERTEX
  8
0
 10
170.869257
 20
107.276924
 42
-0.007070
  0
SEQEND
  0
POLYLINE
  8
0
 66
1
 70
1
  0
VERTEX
  8
0
 10
161.176676
 20
267.377393
 42
0.152569
  0
VERTEX
  8
0
 10
161.577481
 20
266.642833
 42
0.036639
  0
VERTEX
  8
0
 10
162.656270
 20
265.742892
 42
0.034282
  0
VERTEX
  8
0
 10
164.105278
 20
264.847552
 42
0.028183
  0
VERTEX
  8
0
 10
165.759562
 20
264.091687
 42
-0.024988
  0
VERTEX
  8
0
 10
167.615950
 20
263.257767
 42
-0.016205
  0
VERTEX
  8
0
 10
169.676525
 20
262.119799
 42
-0.016300
  0
VERTEX
  8
0
 10
171.621350
 20
260.874381
 42
-0.029523
  0
VERTEX
  8
0
 10
173.112390
 20
259.714294
 42
0.005607
  0
VERTEX
  8
0
 10
175.460297
 20
257.700190
 42
0.087277
  0
VERTEX
  8
0
 10
176.375019
 20
257.171958
 42
0.408576
  0
VERTEX
  8
0
 10
176.828520
 20
257.377847
 42
0.092479
  0
VERTEX
  8
0
 10
177.000000
 20
258.297052
 42
0.185046
  0
VERTEX
  8
0
 10
176.411279
 20
259.833324
 42
0.014666
  0
VERTEX
  8
0
 10
173.347615
 20
263.048744
 42
0.020603
  0
VERTEX
  8
0
 10
169.989991
 20
266.108598
 42
0.056226
  0
VERTEX
  8
0
 10
167.315741
 20
267.881767
 42
0.051735
  0
VERTEX
  8
0
 10
164.963620
 20
268.793485
 42
0.087316
  0
VERTEX
  8
0
 10
162.863315
 20
268.987718
 42
0.155502
  0
VERTEX
  8
0
 10
161.552462
 20
268.448110
 42
0.273650
  0
SEQEND
  0
POLYLINE
  8
0
 66
1
 70
1
  0
VERTEX
  8
0
 10
161.250000
 20
251.968838
 42
0.020492
  0
VERTEX
  8
0
 10
159.309780
 20
251.095014
 42
0.602479
  0
VERTEX
  8
0
 10
159.300291
 20
250.667126
 42
0.126439
  0
VERTEX
  8
0
 10
160.279455
 20
250.409847
 42
0.004991
  0
VERTEX
  8
0
 10
164.016322
 20
250.426957
 42
0.006159
  0
VERTEX
  8
0
 10
166.825945
 20
250.502493
 42
0.085502
  0
VERTEX
  8
0
 10
167.815156
 20
250.713114
 42
0.476686
  0
VERTEX
  8
0
 10
167.938250
 20
251.109955
 42
0.087721
  0
VERTEX
  8
0
 10
167.325193
 20
251.750000
 42
0.048087
  0
VERTEX
  8
0
 10
165.935643
 20
252.575094
 42
0.101277
  0
VERTEX
  8
0
 10
164.721748
 20
252.869418
 42
0.081417
  0
VERTEX
  8
0
 10
163.321910
 20
252.691430
 42
0.023314
  0
SEQEND
  0
POLYLINE
  8
0
 66
1
 70
1
  0
VERTEX
  8
0
 10
161.024707
 20
247.977860
 42
-0.016643
  0
VERTEX
  8
0
 10
159.637266
 20
247.699897
 42
-0.021237
  0
VERTEX
  8
0
 10
158.342711
 20
247.541206
 42
-0.019753
  0
VERTEX
  8
0
 10
157.271249
 20
247.498317
 42
-0.139413
  0
VERTEX
  8
0
 10
156.774707
 20
247.639239
 42
0.223476
  0
VERTEX
  8
0
 10
156.217096
 20
247.702998
 42
0.466412
  0
VERTEX
  8
0
 10
156.078477
 20
247.347803
 42
0.064026
  0
VERTEX
  8
0
 10
156.910345
 20
246.203589
 42
0.029763
  0
VERTEX
  8
0
 10
158.250000
 20
244.943562
 42
0.083318
  0
VERTEX
  8
0
 10
160.362191
 20
243.708779
 42
0.065726
  0
VERTEX
  8
0
 10
162.943695
 20
243.100240
 42
0.073328
  0
VERTEX
  8
0
 10
165.264825
 20
243.207444
 42
0.209140
  0
VERTEX
  8
0
 10
166.566212
 20
244.107134
 42
0.112393
  0
VERTEX
  8
0
 10
166.713603
 20
244.537821
 42
0.358524
  0
VERTEX
  8
0
 10
166.558195
 20
244.773676
 42
0.130377
  0
VERTEX
  8
0
 10
166.064214
 20
244.793640
 42
0.022112
  0
VERTEX
  8
0
 10
165.145409
 20
244.546151
 42
-0.054859
  0
VERTEX
  8
0
 10
164.215537
 20
244.359860
 42
-0.040245
  0
VERTEX
  8
0
 10
163.162861
 20
244.351788
 42
-0.040968
  0
VERTEX
  8
0
 10
162.152104
 20
244.509381
 42
-0.068518
  0
VERTEX
  8
0
 10
161.352338
 20
244.822698
 42
-0.048580
  0
VERTEX
  8
0
 10
160.593243
 20
245.350186
 42
-0.421110
  0
VERTEX
  8
0
 10
160.567586
 20
245.719926
 42
-0.147407
  0
VERTEX
  8
0
 10
161.097224
 20
246.044819
 42
-0.010331
  0
VERTEX
  8
0
 10
162.809688
 20
246.458200
 42
-0.028437
  0
VERTEX
  8
0
 10
164.162262
 20
246.675569
 42
-0.023258
  0
VERTEX
  8
0
 10
165.625206
 20
246.757545
 42
-0.023862
  0
VERTEX
  8
0
 10
166.980978
 20
246.705666
 42
-0.055399
  0
VERTEX
  8
0
 10
167.977529
 20
246.507132
 42
0.041337
  0
VERTEX
  8
0
 10
168.752596
 20
246.329979
 42
0.073536
  0
VERTEX
  8
0
 10
169.405899
 20
246.333070
 42
0.114877
  0
VERTEX
  8
0
 10
169.838216
 20
246.505888
 42
0.245182
  0
VERTEX
  8
0
 10
170.000000
 20
246.815981
 42
0.269505
  0
VERTEX
  8
0
 10
169.617086
 20
247.474783
 42
0.031415
  0
VERTEX
  8
0
 10
168.025201
 20
248.253562
 42
0.035899
  0
VERTEX
  8
0
 10
166.264721
 20
248.837765
 42
0.106457
  0
VERTEX
  8
0
 10
165.000000
 20
248.883984
 42
0.011483
  0
VERTEX
  8
0
 10
164.663177
 20
248.816215
 42
0.000649
  0
VERTEX
  8
0
 10
163.626008
 20
248.581219
 42
0.000995
  0
VERTEX
  8
0
 10
162.392342
 20
248.297434
 42
0.000730
  0
SEQEND
  0
POLYLINE
  8
0
 66
1
 70
1
  0
VERTEX
  8
0
 10
96.169036
 20
143.282065
 42
0.010860
  0
VERTEX
  8
0
 10
95.702133
 20
142.022020
 42
0.006801
  0
VERTEX
  8
0
 10
95.208116
 20
140.528975
 42
0.006825
  0
VERTEX
  8
0
 10
94.761454
 20
139.044590
 42
0.012353
  0
VERTEX
  8
0
 10
94.442735
 20
137.816573
 42
-0.035182
  0
VERTEX
  8
0
 10
94.060882
 20
136.580254
 42
-0.114716
  0
VERTEX
  8
0
 10
93.581408
 20
135.876901
 42
-0.169175
  0
VERTEX
  8
0
 10
92.960011
 20
135.607671
 42
-0.102976
  0
VERTEX
  8
0
 10
92.158301
 20
135.713752
 42
0.011596
  0
VERTEX
  8
0
 10
91.267113
 20
136.002756
 42
0.357055
  0
VERTEX
  8
0
 10
91.066358
 20
135.918943
 42
0.308546
  0
VERTEX
  8
0
 10
91.091915
 20
135.685723
 42
0.010074
  0
VERTEX
  8
0
 10
91.750000
 20
134.947179
 42
-0.072067
  0
VERTEX
  8
0
 10
92.715406
 20
133.548428
 42
-0.146991
  0
VERTEX
  8
0
 10
92.936902
 20
132.245079
 42
-0.206984
  0
VERTEX
  8
0
 10
92.394651
 20
131.323329
 42
-0.147493
  0
VERTEX
  8
0
 10
91.250000
 20
130.921053
 42
0.021021
  0
VERTEX
  8
0
 10
90.583427
 20
130.862835
 42
0.185333
  0
VERTEX
  8
0
 10
90.327933
 20
130.724694
 42
0.449116
  0
VERTEX
  8
0
 10
90.351958
 20
130.548620
 42
0.051902
  0
VERTEX
  8
0
 10
90.750000
 20
130.337719
 42
-0.198435
  0
VERTEX
  8
0
 10
91.271127
 20
129.827004
 42
-0.044892
  0
VERTEX
  8
0
 10
91.661852
 20
128.623765
 42
-0.036422
  0
VERTEX
  8
0
 10
91.917821
 20
126.946594
 42
-0.019662
  0
VERTEX
  8
0
 10
92.000000
 20
124.857650
 42
-0.015291
  0
VERTEX
  8
0
 10
91.937696
 20
122.820897
 42
-0.041127
  0
VERTEX
  8
0
 10
91.730808
 20
121.387748
 42
-0.080002
  0
VERTEX
  8
0
 10
91.410924
 20
120.598889
 42
-0.416755
  0
VERTEX
  8
0
 10
91.000000
 20
120.500000
 42
0.082592
  0
VERTEX
  8
0
 10
90.617900
 20
120.656512
 42
0.161196
  0
VERTEX
  8
0
 10
90.293750
 20
120.625400
 42
0.182303
  0
VERTEX
  8
0
 10
90.078288
 20
120.413961
 42
0.108972
  0
VERTEX
  8
0
 10
90.000000
 20
120.059017
 42
0.082317
  0
VERTEX
  8
0
 10
90.067044
 20
119.654551
 42
0.092362
  0
VERTEX
  8
0
 10
90.260397
 20
119.311086
 42
0.100641
  0
VERTEX
  8
0
 10
90.548346
 20
119.081426
 42
0.118716
  0
VERTEX
  8
0
 10
90.886456
 20
119.000000
 42
-0.295905
  0
VERTEX
  8
0
 10
91.269207
 20
118.751747
 42
-0.025119
  0
VERTEX
  8
0
 10
91.713825
 20
117.604687
 42
-0.026908
  0
VERTEX
  8
0
 10
92.131435
 20
116.070434
 42
-0.017167
  0
VERTEX
  8
0
 10
92.458219
 20
114.250000
 42
0.006503
  0
VERTEX
  8
0
 10
93.191756
 20
109.594927
 42
0.030106
  0
VERTEX
  8
0
 10
93.811268
 20
106.943011
 42
0.056303
  0
VERTEX
  8
0
 10
94.447123
 20
105.448151
 42
0.270345
  0
VERTEX
  8
0
 10
95.215397
 20
105.000000
 42
0.212146
  0
VERTEX
  8
0
 10
95.538380
 20
105.143498
 42
0.139650
  0
VERTEX
  8
0
 10
95.720641
 20
105.514062
 42
0.089303
  0
VERTEX
  8
0
 10
95.721469
 20
106.079498
 42
0.048632
  0
VERTEX
  8
0
 10
95.533115
 20
106.750000
 42
-0.060993
  0
VERTEX
  8
0
 10
95.239996
 20
107.901749
 42
-0.005548
  0
VERTEX
  8
0
 10
94.895627
 20
110.850000
 42
-0.007123
  0
VERTEX
  8
0
 10
94.572985
 20
114.388213
 42
-0.005514
  0
VERTEX
  8
0
 10
94.319046
 20
118.250000
 42
-0.005848
  0
VERTEX
  8
0
 10
94.113113
 20
123.043204
 42
-0.025640
  0
VERTEX
  8
0
 10
94.169854
 20
125.875944
 42
-0.043520
  0
VERTEX
  8
0
 10
94.436808
 20
127.548410
 42
-0.344070
  0
VERTEX
  8
0
 10
95.015365
 20
128.000000
 42
0.077979
  0
VERTEX
  8
0
 10
95.543207
 20
128.082824
 42
0.335972
  0
VERTEX
  8
0
 10
95.714293
 20
128.326953
 42
0.146568
  0
VERTEX
  8
0
 10
95.567283
 20
128.758901
 42
0.018406
  0
VERTEX
  8
0
 10
94.957994
 20
129.550615
 42
-0.036617
  0
VERTEX
  8
0
 10
94.344371
 20
130.411009
 42
-0.241452
  0
VERTEX
  8
0
 10
94.307261
 20
130.922077
 42
-0.204707
  0
VERTEX
  8
0
 10
94.706405
 20
131.305732
 42
-0.026506
  0
VERTEX
  8
0
 10
95.858844
 20
131.673338
 42
0.016399
  0
VERTEX
  8
0
 10
97.071698
 20
132.033385
 42
0.225506
  0
VERTEX
  8
0
 10
97.393987
 20
132.342762
 42
0.307654
  0
VERTEX
  8
0
 10
97.303918
 20
132.719480
 42
0.026960
  0
VERTEX
  8
0
 10
96.503309
 20
133.373922
 42
-0.099378
  0
VERTEX
  8
0
 10
95.736184
 20
134.211841
 42
-0.138404
  0
VERTEX
  8
0
 10
95.468212
 20
135.187099
 42
-0.062408
  0
VERTEX
  8
0
 10
95.668770
 20
136.702728
 42
-0.008114
  0
VERTEX
  8
0
 10
96.548046
 20
139.849833
 42
0.012205
  0
VERTEX
  8
0
 10
97.558555
 20
143.584276
 42
0.087682
  0
VERTEX
  8
0
 10
97.679235
 20
145.440097
 42
0.732941
  0
VERTEX
  8
0
 10
97.224968
 20
145.530210
 42
0.031275
  0
SEQEND
  0
POLYLINE
  8
0
 66
1
 70
1
  0
VERTEX
  8
0
 10
49.666667
 20
56.333333
 42
0.090974
  0
VERTEX
  8
0
 10
49.013826
 20
55.387122
 42
0.313764
  0
VERTEX
  8
0
 10
49.144051
 20
54.693445
 42
0.206109
  0
VERTEX
  8
0
 10
49.980181
 20
54.368536
 42
0.052550
  0
VERTEX
  8
0
 10
51.451912
 20
54.577287
 42
-0.115357
  0
VERTEX
  8
0
 10
55.275800
 20
54.639262
 42
-0.051466
  0
VERTEX
  8
0
 10
60.090401
 20
53.063321
 42
-0.046181
  0
VERTEX
  8
0
 10
65.169823
 20
50.212290
 42
-0.041442
  0
VERTEX
  8
0
 10
69.841511
 20
46.383196
 42
0.007140
  0
VERTEX
  8
0
 10
73.550566
 20
42.891954
 42
0.072645
  0
VERTEX
  8
0
 10
75.296079
 20
41.708411
 42
0.633620
  0
VERTEX
  8
0
 10
75.756223
 20
42.079555
 42
0.063561
  0
VERTEX
  8
0
 10
75.082172
 20
43.846460
 42
0.081747
  0
VERTEX
  8
0
 10
73.162962
 20
46.347474
 42
0.021965
  0
VERTEX
  8
0
 10
69.350874
 20
49.618880
 42
0.022973
  0
VERTEX
  8
0
 10
64.968925
 20
52.742931
 42
0.036900
  0
VERTEX
  8
0
 10
60.942542
 20
54.940726
 42
0.037212
  0
VERTEX
  8
0
 10
57.594463
 20
56.168537
 42
0.038574
  0
VERTEX
  8
0
 10
54.141256
 20
56.868506
 42
0.039854
  0
VERTEX
  8
0
 10
51.187963
 20
56.996210
 42
0.189456
  0
SEQEND
  0
ENDSEC
  0
EOF
