<?xml version="1.0" standalone="no"?>
<!DOCTYPE svg PUBLIC "-//W3C//DTD SVG 20010904//EN"
 "http://www.w3.org/TR/2001/REC-SVG-20010904/DTD/svg10.dtd">
<svg version="1.0" xmlns="http://www.w3.org/2000/svg"
 width="300.000000pt" height="300.000000pt" viewBox="0 0 300.000000 300.000000"
 preserveAspectRatio="xMidYMid meet">
<metadata>
Created by potrace 1.15, written by Peter Selinger 2001-2017
</metadata>
<g transform="translate(0.000000,300.000000) scale(0.100000,-0.100000)"
fill="#000000" stroke="none">
<path d="M870 2940 c-48 -25 -67 -69 -81 -195 -18 -161 6 -328 76 -531 14 -40
25 -91 25 -114 0 -27 7 -51 21 -68 11 -15 30 -43 43 -63 l23 -36 -36 -13 c-83
-29 -108 -96 -52 -139 l29 -23 -25 -36 c-80 -118 -123 -266 -125 -429 l-2
-112 -44 -13 c-25 -7 -65 -30 -89 -52 -72 -63 -97 -147 -82 -276 5 -41 11 -85
15 -97 6 -20 3 -22 -28 -16 -55 8 -118 -32 -131 -85 -7 -29 15 -94 45 -132 59
-74 198 -150 276 -150 48 0 102 33 103 62 1 13 2 68 2 123 2 113 18 153 75
192 41 27 153 41 197 24 66 -27 181 -52 234 -52 l56 -1 16 -96 c10 -64 31
-136 61 -210 l46 -112 -34 0 c-73 0 -134 -54 -134 -119 0 -42 61 -103 126
-125 27 -10 83 -20 126 -23 66 -5 82 -3 122 17 82 39 107 136 71 270 -22 83
-19 207 10 349 14 69 28 159 32 200 3 42 12 88 19 103 22 43 35 197 24 275
-13 95 -13 98 15 113 23 12 26 11 46 -14 40 -51 94 -53 145 -5 20 19 21 19 95
-6 213 -73 413 -97 480 -56 38 23 69 68 69 100 0 71 -69 117 -335 226 -149 61
-150 62 -147 92 4 46 -24 74 -78 75 -30 0 -69 12 -118 36 -70 34 -72 37 -53
52 10 8 21 24 23 35 2 11 12 21 23 23 34 7 55 33 55 70 0 27 -8 42 -36 69 -34
32 -35 35 -21 56 8 13 27 60 41 106 30 95 35 234 12 312 -13 41 -12 49 6 89
16 34 19 59 16 116 -3 64 -7 77 -32 103 -51 54 -104 50 -156 -10 l-25 -29 -45
17 c-50 18 -152 22 -217 9 -39 -8 -43 -7 -43 11 0 11 -14 39 -30 61 -25 35
-36 42 -64 42 -48 0 -70 -29 -69 -89 0 -28 8 -62 19 -80 10 -17 16 -32 13 -35
-13 -12 -144 -88 -174 -100 -39 -17 -42 -30 -19 -80 25 -51 13 -83 -36 -96
-21 -6 -42 -14 -44 -19 -3 -5 -20 -6 -38 -2 -29 6 -35 13 -55 71 -31 90 -53
181 -63 274 -13 109 -25 142 -64 166 -41 24 -61 25 -106 0z m105 -23 c22 -19
29 -37 40 -112 27 -182 51 -280 89 -367 6 -13 4 -18 -8 -18 -26 0 -142 -117
-172 -174 l-28 -54 -13 36 c-15 45 -39 132 -61 227 -24 101 -21 321 4 395 15
44 26 58 54 72 46 23 64 23 95 -5z m572 -29 c22 -25 43 -61 43 -76 0 -14 -102
-64 -111 -55 -4 4 -13 29 -20 54 -11 41 -10 50 4 73 22 32 56 34 84 4z m518
-71 c22 -18 27 -34 32 -84 8 -84 -10 -145 -53 -183 -40 -34 -45 -49 -9 -26 13
9 26 16 28 16 3 0 10 -20 17 -45 16 -56 8 -208 -15 -280 -22 -72 -70 -164
-108 -207 -37 -44 -19 -42 -347 -35 l-205 4 -22 33 c-18 26 -23 29 -23 13 0
-10 5 -24 12 -31 22 -22 -3 -13 -45 17 -23 16 -61 49 -83 73 -99 103 -128 173
-101 239 l13 34 13 -48 c14 -56 86 -136 144 -160 22 -10 47 -33 68 -65 37 -58
68 -76 103 -63 36 14 60 51 95 150 35 97 44 109 66 91 10 -9 15 -9 15 -1 0 6
-12 18 -27 28 -16 9 -34 23 -40 32 -7 8 -16 11 -20 8 -3 -4 4 -18 16 -31 l22
-24 -29 -34 c-39 -43 -113 -80 -173 -86 -91 -9 -200 72 -219 161 -6 27 -8 52
-5 55 3 3 5 0 5 -6 0 -21 51 -62 76 -62 16 0 39 13 60 34 46 46 45 65 -6 99
-25 17 -24 17 38 15 47 -2 65 1 72 12 14 21 12 53 -3 75 -12 16 -14 13 -13
-26 l1 -44 -61 0 c-59 0 -61 1 -52 21 7 16 5 32 -10 63 l-20 41 25 20 c36 28
51 25 23 -5 -26 -27 -17 -33 14 -10 11 8 28 15 37 15 28 0 33 19 7 29 l-23 8
25 8 c14 4 61 31 105 60 81 54 190 95 249 95 37 0 135 -27 154 -42 7 -6 12
-34 12 -67 0 -60 8 -101 19 -101 4 0 6 25 3 55 -6 74 4 119 34 155 31 37 72
40 109 7z m-515 -677 c0 -19 -32 -74 -53 -93 -27 -23 -39 -9 -27 33 11 42 80
92 80 60z m-181 -200 c-16 -10 -25 -5 -40 21 -10 20 -10 20 22 4 24 -13 28
-19 18 -25z m-211 -232 c314 -327 349 -356 462 -382 74 -18 182 -21 210 -6 16
9 19 2 30 -74 9 -65 9 -102 0 -162 -12 -79 -29 -130 -30 -89 0 35 -39 86 -78
102 -45 19 -114 12 -171 -17 -82 -41 -164 -176 -177 -289 l-7 -61 -47 0 c-64
0 -192 34 -270 72 -85 41 -203 159 -244 243 -79 163 -51 455 63 643 40 67 109
151 124 152 4 0 65 -60 135 -132z m1157 -98 c341 -140 395 -173 395 -242 0
-39 -44 -83 -101 -99 -88 -24 -320 27 -544 119 -69 29 -70 30 -67 63 10 95
101 236 146 226 12 -3 89 -33 171 -67z m-1531 -507 c31 -100 117 -215 220
-291 l29 -22 -34 0 c-19 0 -52 -9 -74 -19 -85 -38 -116 -112 -113 -265 1 -76
0 -80 -27 -104 -25 -21 -36 -23 -74 -19 -124 16 -281 140 -281 223 0 46 8 63
41 79 56 30 146 12 199 -39 17 -16 34 -26 37 -22 9 9 -27 45 -73 72 -37 22
-42 30 -53 81 -27 134 -4 254 58 313 36 34 94 69 117 70 6 0 18 -26 28 -57z
m1000 -65 l29 -31 -7 -131 c-3 -72 -13 -160 -21 -196 -25 -108 -30 -281 -11
-384 25 -132 6 -211 -58 -238 -17 -7 -63 -13 -102 -12 -172 1 -285 104 -210
191 23 26 29 28 103 28 62 0 87 -5 122 -23 24 -13 45 -21 48 -19 8 8 -51 44
-95 58 -41 14 -46 19 -74 84 -46 107 -67 182 -80 280 -10 77 -9 101 5 163 20
87 77 181 140 229 48 36 74 43 137 37 35 -3 51 -11 74 -36z"/>
<path d="M1620 2672 c0 -12 13 -23 38 -31 20 -7 52 -25 70 -38 18 -14 35 -23
38 -20 9 9 -49 68 -87 87 -47 25 -59 25 -59 2z"/>
<path d="M1618 2523 c-32 -8 -19 -19 22 -18 41 0 52 8 24 19 -17 6 -19 6 -46
-1z"/>
<path d="M1322 2500 c-11 -18 -10 -20 12 -20 13 0 33 -3 43 -6 13 -4 11 0 -7
16 l-25 21 24 -6 c16 -5 21 -4 17 4 -12 18 -50 13 -64 -9z"/>
<path d="M1608 2478 c-36 -9 -36 -10 -17 -29 20 -20 64 -26 74 -9 4 6 -5 7
-23 4 -17 -3 -32 -1 -36 4 -8 13 56 27 79 18 8 -3 15 -2 15 3 0 5 -10 11 -22
15 -26 7 -22 7 -70 -6z"/>
<path d="M962 1433 c-6 -15 -14 -40 -18 -55 -4 -18 -10 -25 -21 -21 -13 5 -13
3 -1 -17 8 -14 9 -24 3 -26 -6 -2 -8 -29 -7 -60 3 -45 1 -55 -10 -48 -10 6
-11 5 -1 -7 6 -8 16 -43 22 -78 16 -99 21 -84 15 42 -5 95 -4 117 7 117 11 0
11 2 1 8 -16 10 -4 45 12 35 6 -4 5 1 -2 10 -12 14 -11 24 3 67 18 54 15 80
-3 33z"/>
<path d="M497 563 c-14 -14 -6 -18 36 -18 56 -1 125 -35 181 -92 25 -25 46
-40 46 -34 0 23 -92 103 -146 127 -53 23 -104 31 -117 17z"/>
</g>
</svg>
