  0
SECTION
  2
HEADER
  9
$ACADVER
  1
AC1006
  9
$EXTMIN
 10
0.000000
 20
0.000000
 30
0.000000
  9
$EXTMAX
 10
512.000000
 20
512.000000
 30
0.000000
  0
ENDSEC
  0
SECTION
  2
ENTITIES
  0
POLYLINE
  8
0
 66
1
 70
1
  0
VERTEX
  8
0
 10
244.273154
 20
511.027676
 42
0.058876
  0
VERTEX
  8
0
 10
227.333014
 20
507.053450
 42
0.078037
  0
VERTEX
  8
0
 10
213.485062
 20
499.419601
 42
0.076702
  0
VERTEX
  8
0
 10
202.474133
 20
487.791024
 42
0.054688
  0
VERTEX
  8
0
 10
193.928927
 20
471.989985
 42
0.034076
  0
VERTEX
  8
0
 10
189.297509
 20
457.937138
 42
0.022954
  0
VERTEX
  8
0
 10
185.868688
 20
441.390997
 42
0.019136
  0
VERTEX
  8
0
 10
183.477297
 20
421.586294
 42
0.010887
  0
VERTEX
  8
0
 10
182.027358
 20
397.500000
 42
-0.017282
  0
VERTEX
  8
0
 10
180.282653
 20
373.613798
 42
-0.031107
  0
VERTEX
  8
0
 10
176.967421
 20
354.262108
 42
-0.034285
  0
VERTEX
  8
0
 10
171.557792
 20
336.799287
 42
-0.027288
  0
VERTEX
  8
0
 10
163.447635
 20
318.808260
 42
0.009126
  0
VERTEX
  8
0
 10
144.961913
 20
281.480382
 42
0.016087
  0
VERTEX
  8
0
 10
131.267352
 20
249.920123
 42
0.017868
  0
VERTEX
  8
0
 10
120.628967
 20
219.988470
 42
0.015358
  0
VERTEX
  8
0
 10
111.554185
 20
187.831634
 42
0.000000
  0
VERTEX
  8
0
 10
106.899818
 20
169.163268
 42
0.000000
  0
VERTEX
  8
0
 10
100.097250
 20
162.238175
 42
0.027889
  0
VERTEX
  8
0
 10
95.586211
 20
157.102213
 42
0.046037
  0
VERTEX
  8
0
 10
92.457802
 20
152.252862
 42
0.054141
  0
VERTEX
  8
0
 10
90.621331
 20
147.556371
 42
0.066240
  0
VERTEX
  8
0
 10
90.000000
 20
142.886961
 42
-0.026910
  0
VERTEX
  8
0
 10
89.933700
 20
141.655989
 42
-0.016995
  0
VERTEX
  8
0
 10
89.730630
 20
140.231502
 42
-0.017060
  0
VERTEX
  8
0
 10
89.434678
 20
138.840972
 42
-0.029884
  0
VERTEX
  8
0
 10
89.082997
 20
137.718298
 42
-0.136851
  0
VERTEX
  8
0
 10
87.831663
 20
136.021149
 42
-0.079170
  0
VERTEX
  8
0
 10
85.597316
 20
134.784691
 42
-0.028449
  0
VERTEX
  8
0
 10
81.285697
 20
133.495483
 42
-0.002667
  0
VERTEX
  8
0
 10
70.500000
 20
130.989078
 42
0.028854
  0
VERTEX
  8
0
 10
62.679606
 20
128.734476
 42
0.037625
  0
VERTEX
  8
0
 10
55.861811
 20
125.742078
 42
0.042607
  0
VERTEX
  8
0
 10
50.394676
 20
122.207108
 42
0.074238
  0
VERTEX
  8
0
 10
46.669190
 20
118.314456
 42
0.076249
  0
VERTEX
  8
0
 10
44.444170
 20
113.857781
 42
0.055133
  0
VERTEX
  8
0
 10
43.335636
 20
108.408649
 42
0.043553
  0
VERTEX
  8
0
 10
43.312130
 20
101.668802
 42
0.022098
  0
VERTEX
  8
0
 10
44.393603
 20
93.249555
 42
-0.020485
  0
VERTEX
  8
0
 10
45.542618
 20
84.527203
 42
-0.022460
  0
VERTEX
  8
0
 10
45.927266
 20
76.004568
 42
-0.023795
  0
VERTEX
  8
0
 10
45.547869
 20
68.005006
 42
-0.032178
  0
VERTEX
  8
0
 10
44.399724
 20
60.858933
 42
0.016218
  0
VERTEX
  8
0
 10
43.771593
 20
57.613974
 42
0.019257
  0
VERTEX
  8
0
 10
43.397159
 20
54.515566
 42
0.021045
  0
VERTEX
  8
0
 10
43.286236
 20
51.720943
 42
0.036625
  0
VERTEX
  8
0
 10
43.461481
 20
49.408297
 42
0.110193
  0
VERTEX
  8
0
 10
46.014202
 20
42.794474
 42
0.076019
  0
VERTEX
  8
0
 10
51.444765
 20
36.842216
 42
0.062397
  0
VERTEX
  8
0
 10
59.528994
 20
31.831960
 42
0.039785
  0
VERTEX
  8
0
 10
69.931570
 20
28.026946
 42
0.021375
  0
VERTEX
  8
0
 10
78.531960
 20
26.027846
 42
0.008745
  0
VERTEX
  8
0
 10
90.357728
 20
24.020341
 42
0.008417
  0
VERTEX
  8
0
 10
102.003409
 20
22.452425
 42
0.029069
  0
VERTEX
  8
0
 10
109.600777
 20
22.004606
 42
-0.030956
  0
VERTEX
  8
0
 10
114.814774
 20
21.677538
 42
-0.047316
  0
VERTEX
  8
0
 10
119.234360
 20
20.693412
 42
-0.026757
  0
VERTEX
  8
0
 10
124.902827
 20
18.513310
 42
-0.004011
  0
VERTEX
  8
0
 10
136.000000
 20
13.441550
 42
0.011666
  0
VERTEX
  8
0
 10
146.197488
 20
8.968400
 42
0.019979
  0
VERTEX
  8
0
 10
154.922516
 20
5.782598
 42
0.021284
  0
VERTEX
  8
0
 10
163.474529
 20
3.438037
 42
0.015745
  0
VERTEX
  8
0
 10
173.100643
 20
1.551480
 42
0.030520
  0
VERTEX
  8
0
 10
180.869331
 20
0.763998
 42
0.060864
  0
VERTEX
  8
0
 10
187.018782
 20
1.266775
 42
0.071412
  0
VERTEX
  8
0
 10
192.204922
 20
3.134848
 42
0.060105
  0
VERTEX
  8
0
 10
197.000000
 20
6.474690
 42
-0.075863
  0
VERTEX
  8
0
 10
200.734472
 20
8.905486
 42
-0.012828
  0
VERTEX
  8
0
 10
208.597311
 20
12.229126
 42
-0.014624
  0
VERTEX
  8
0
 10
217.546694
 20
15.445508
 42
-0.018488
  0
VERTEX
  8
0
 10
226.000000
 20
17.865342
 42
-0.023384
  0
VERTEX
  8
0
 10
236.651028
 20
19.969802
 42
-0.020220
  0
VERTEX
  8
0
 10
247.982257
 20
21.196938
 42
-0.013249
  0
VERTEX
  8
0
 10
263.078816
 20
21.815440
 42
-0.003553
  0
VERTEX
  8
0
 10
287.091712
 20
21.991795
 42
0.000000
  0
VERTEX
  8
0
 10
321.683425
 20
22.000000
 42
0.000000
  0
VERTEX
  8
0
 10
322.813444
 20
18.250000
 42
0.064449
  0
VERTEX
  8
0
 10
324.696407
 20
14.049384
 42
0.054443
  0
VERTEX
  8
0
 10
327.680023
 20
10.196331
 42
0.049399
  0
VERTEX
  8
0
 10
331.725180
 20
6.758639
 42
0.037076
  0
VERTEX
  8
0
 10
336.765043
 20
3.795138
 42
0.015478
  0
VERTEX
  8
0
 10
340.785504
 20
1.968345
 42
0.045743
  0
VERTEX
  8
0
 10
343.676940
 20
1.060888
 42
0.043691
  0
VERTEX
  8
0
 10
346.756932
 20
0.672750
 42
0.013172
  0
VERTEX
  8
0
 10
351.479445
 20
0.617550
 42
0.027726
  0
VERTEX
  8
0
 10
358.992358
 20
1.145010
 42
0.031178
  0
VERTEX
  8
0
 10
366.106466
 20
2.497451
 42
0.029693
  0
VERTEX
  8
0
 10
373.285030
 20
4.793528
 42
0.021352
  0
VERTEX
  8
0
 10
381.000000
 20
8.161697
 42
0.021604
  0
VERTEX
  8
0
 10
386.139656
 20
10.953070
 42
0.034010
  0
VERTEX
  8
0
 10
390.258036
 20
13.823707
 42
0.023180
  0
VERTEX
  8
0
 10
394.920819
 20
17.938722
 42
0.005128
  0
VERTEX
  8
0
 10
402.500000
 20
25.431744
 42
-0.012365
  0
VERTEX
  8
0
 10
412.247924
 20
34.793806
 42
-0.040938
  0
VERTEX
  8
0
 10
419.279091
 20
40.235549
 42
-0.044223
  0
VERTEX
  8
0
 10
426.813336
 20
44.239066
 42
-0.016272
  0
VERTEX
  8
0
 10
438.062355
 20
48.569850
 42
0.023404
  0
VERTEX
  8
0
 10
452.771794
 20
54.475027
 42
0.074836
  0
VERTEX
  8
0
 10
461.603345
 20
60.235376
 42
0.112651
  0
VERTEX
  8
0
 10
466.330291
 20
66.869290
 42
0.099473
  0
VERTEX
  8
0
 10
467.990231
 20
75.210162
 42
0.080282
  0
VERTEX
  8
0
 10
466.728151
 20
82.929251
 42
0.078117
  0
VERTEX
  8
0
 10
463.095109
 20
89.938361
 42
0.059098
  0
VERTEX
  8
0
 10
456.532590
 20
96.952003
 42
0.024728
  0
VERTEX
  8
0
 10
446.222911
 20
104.807546
 42
-0.006583
  0
VERTEX
  8
0
 10
442.705721
 20
107.291151
 42
-0.007143
  0
VERTEX
  8
0
 10
439.350671
 20
109.801051
 42
-0.006768
  0
VERTEX
  8
0
 10
436.537964
 20
112.029906
 42
-0.034274
  0
VERTEX
  8
0
 10
435.077247
 20
113.396616
 42
0.000000
  0
VERTEX
  8
0
 10
432.654495
 20
115.996676
 42
0.000000
  0
VERTEX
  8
0
 10
433.912478
 20
127.014124
 42
0.009536
  0
VERTEX
  8
0
 10
434.342245
 20
131.542685
 42
0.009828
  0
VERTEX
  8
0
 10
434.593816
 20
136.038996
 42
0.009606
  0
VERTEX
  8
0
 10
434.660247
 20
139.940275
 42
0.040727
  0
VERTEX
  8
0
 10
434.465395
 20
142.265785
 42
0.040801
  0
VERTEX
  8
0
 10
433.473981
 20
146.204960
 42
0.031502
  0
VERTEX
  8
0
 10
431.785087
 20
150.300827
 42
0.031842
  0
VERTEX
  8
0
 10
429.781339
 20
153.818816
 42
0.094271
  0
VERTEX
  8
0
 10
427.856078
 20
155.806704
 42
-0.136058
  0
VERTEX
  8
0
 10
426.860352
 20
157.020736
 42
-0.069537
  0
VERTEX
  8
0
 10
426.315986
 20
158.930935
 42
-0.030456
  0
VERTEX
  8
0
 10
426.058273
 20
162.233546
 42
-0.004246
  0
VERTEX
  8
0
 10
426.000000
 20
169.096118
 42
0.047874
  0
VERTEX
  8
0
 10
422.270788
 20
207.955387
 42
0.048040
  0
VERTEX
  8
0
 10
411.219735
 20
245.348996
 42
0.047387
  0
VERTEX
  8
0
 10
393.057433
 20
280.401132
 42
0.044148
  0
VERTEX
  8
0
 10
368.238357
 20
312.313925
 42
-0.011492
  0
VERTEX
  8
0
 10
361.214429
 20
320.221932
 42
-0.023414
  0
VERTEX
  8
0
 10
356.145302
 20
326.801412
 42
-0.025743
  0
VERTEX
  8
0
 10
352.022464
 20
333.404339
 42
-0.017426
  0
VERTEX
  8
0
 10
347.989099
 20
341.308488
 42
-0.020241
  0
VERTEX
  8
0
 10
344.444856
 20
349.773535
 42
-0.037332
  0
VERTEX
  8
0
 10
342.373506
 20
356.938827
 42
-0.035370
  0
VERTEX
  8
0
 10
341.326317
 20
364.587176
 42
-0.016263
  0
VERTEX
  8
0
 10
340.995933
 20
374.644345
 42
0.014497
  0
VERTEX
  8
0
 10
340.418387
 20
394.345167
 42
0.014659
  0
VERTEX
  8
0
 10
338.700177
 20
413.906024
 42
0.015436
  0
VERTEX
  8
0
 10
335.995937
 20
432.069375
 42
0.023983
  0
VERTEX
  8
0
 10
332.437873
 20
447.500000
 42
0.028142
  0
VERTEX
  8
0
 10
329.081531
 20
457.271737
 42
0.019231
  0
VERTEX
  8
0
 10
324.234364
 20
467.965294
 42
0.019428
  0
VERTEX
  8
0
 10
318.763370
 20
477.911510
 42
0.037794
  0
VERTEX
  8
0
 10
313.521298
 20
485.296485
 42
0.065390
  0
VERTEX
  8
0
 10
299.816595
 20
497.996254
 42
0.065342
  0
VERTEX
  8
0
 10
283.293975
 20
506.730133
 42
0.063052
  0
VERTEX
  8
0
 10
264.539128
 20
511.118119
 42
0.054232
  0
SEQEND
  0
POLYLINE
  8
0
 66
1
 70
1
  0
VERTEX
  8
0
 10
220.949291
 20
446.526223
 42
-0.070376
  0
VERTEX
  8
0
 10
224.152293
 20
444.250334
 42
-0.033742
  0
VERTEX
  8
0
 10
227.579314
 20
440.534955
 42
-0.033367
  0
VERTEX
  8
0
 10
230.587287
 20
436.239255
 42
-0.051064
  0
VERTEX
  8
0
 10
232.530938
 20
432.133411
 42
-0.032178
  0
VERTEX
  8
0
 10
233.198776
 20
429.773287
 42
-0.011781
  0
VERTEX
  8
0
 10
233.846861
 20
426.364189
 42
-0.011623
  0
VERTEX
  8
0
 10
234.382224
 20
422.594039
 42
-0.013652
  0
VERTEX
  8
0
 10
234.708413
 20
419.000000
 42
-0.045015
  0
VERTEX
  8
0
 10
234.426655
 20
408.474136
 42
-0.063024
  0
VERTEX
  8
0
 10
232.168948
 20
399.351604
 42
-0.073131
  0
VERTEX
  8
0
 10
228.098212
 20
392.150259
 42
-0.099061
  0
VERTEX
  8
0
 10
222.458409
 20
387.274936
 42
-0.006384
  0
VERTEX
  8
0
 10
218.731979
 20
385.226684
 42
-0.244593
  0
VERTEX
  8
0
 10
217.808129
 20
385.217404
 42
-0.455361
  0
VERTEX
  8
0
 10
217.646792
 20
385.858692
 42
-0.010754
  0
VERTEX
  8
0
 10
219.699109
 20
388.675603
 42
0.033399
  0
VERTEX
  8
0
 10
221.237884
 20
391.001997
 42
0.069420
  0
VERTEX
  8
0
 10
222.041127
 20
393.019000
 42
0.049650
  0
VERTEX
  8
0
 10
222.405190
 20
395.581162
 42
0.010483
  0
VERTEX
  8
0
 10
222.500000
 20
400.102922
 42
0.010906
  0
VERTEX
  8
0
 10
222.409785
 20
404.238297
 42
0.037894
  0
VERTEX
  8
0
 10
222.091564
 20
406.891355
 42
0.055984
  0
VERTEX
  8
0
 10
221.464317
 20
408.870059
 42
0.054680
  0
VERTEX
  8
0
 10
220.410065
 20
410.677319
 42
0.154629
  0
VERTEX
  8
0
 10
214.525563
 20
414.937546
 42
0.268442
  0
VERTEX
  8
0
 10
208.795096
 20
413.747795
 42
0.158166
  0
VERTEX
  8
0
 10
204.737256
 20
406.787648
 42
0.066998
  0
VERTEX
  8
0
 10
203.860223
 20
395.889547
 42
0.062858
  0
VERTEX
  8
0
 10
204.088587
 20
394.627746
 42
0.023762
  0
VERTEX
  8
0
 10
204.707834
 20
392.942358
 42
0.023089
  0
VERTEX
  8
0
 10
205.563286
 20
391.152251
 42
0.026073
  0
VERTEX
  8
0
 10
206.549425
 20
389.522305
 42
-0.009211
  0
VERTEX
  8
0
 10
207.503582
 20
388.058972
 42
-0.014835
  0
VERTEX
  8
0
 10
208.255578
 20
386.774695
 42
-0.008595
  0
VERTEX
  8
0
 10
208.818847
 20
385.700278
 42
-0.323382
  0
VERTEX
  8
0
 10
208.777562
 20
385.444229
 42
-0.339198
  0
VERTEX
  8
0
 10
207.459107
 20
385.270033
 42
-0.026075
  0
VERTEX
  8
0
 10
204.260926
 20
387.341762
 42
-0.032167
  0
VERTEX
  8
0
 10
200.943032
 20
390.087196
 42
-0.046877
  0
VERTEX
  8
0
 10
198.437263
 20
392.935338
 42
-0.110588
  0
VERTEX
  8
0
 10
192.777798
 20
406.043611
 42
-0.079632
  0
VERTEX
  8
0
 10
192.324324
 20
422.027002
 42
-0.082907
  0
VERTEX
  8
0
 10
196.806490
 20
436.724656
 42
-0.141373
  0
VERTEX
  8
0
 10
205.420274
 20
446.114510
 42
-0.084285
  0
VERTEX
  8
0
 10
208.732868
 20
447.435378
 42
-0.046218
  0
VERTEX
  8
0
 10
213.082411
 20
447.954889
 42
-0.046088
  0
VERTEX
  8
0
 10
217.480929
 20
447.665916
 42
-0.080054
  0
SEQEND
  0
POLYLINE
  8
0
 66
1
 70
1
  0
VERTEX
  8
0
 10
284.315741
 20
446.881767
 42
-0.084985
  0
VERTEX
  8
0
 10
290.009844
 20
442.618092
 42
-0.070425
  0
VERTEX
  8
0
 10
294.403176
 20
436.436651
 42
-0.061605
  0
VERTEX
  8
0
 10
297.343328
 20
428.486332
 42
-0.042787
  0
VERTEX
  8
0
 10
298.734774
 20
419.000000
 42
-0.044659
  0
VERTEX
  8
0
 10
298.427471
 20
408.457196
 42
-0.062787
  0
VERTEX
  8
0
 10
296.158271
 20
399.334983
 42
-0.072956
  0
VERTEX
  8
0
 10
292.088594
 20
392.141809
 42
-0.099054
  0
VERTEX
  8
0
 10
286.458409
 20
387.274936
 42
-0.006384
  0
VERTEX
  8
0
 10
282.731979
 20
385.226684
 42
-0.244593
  0
VERTEX
  8
0
 10
281.808129
 20
385.217404
 42
-0.455361
  0
VERTEX
  8
0
 10
281.646792
 20
385.858692
 42
-0.010754
  0
VERTEX
  8
0
 10
283.699109
 20
388.675603
 42
0.033399
  0
VERTEX
  8
0
 10
285.237884
 20
391.001997
 42
0.069420
  0
VERTEX
  8
0
 10
286.041127
 20
393.019000
 42
0.049650
  0
VERTEX
  8
0
 10
286.405190
 20
395.581162
 42
0.010483
  0
VERTEX
  8
0
 10
286.500000
 20
400.102922
 42
0.031079
  0
VERTEX
  8
0
 10
286.148982
 20
405.744668
 42
0.077637
  0
VERTEX
  8
0
 10
285.014020
 20
409.702957
 42
0.097864
  0
VERTEX
  8
0
 10
282.926775
 20
412.569829
 42
0.072708
  0
VERTEX
  8
0
 10
279.689055
 20
414.790671
 42
0.291035
  0
VERTEX
  8
0
 10
273.575003
 20
414.113143
 42
0.142978
  0
VERTEX
  8
0
 10
268.904981
 20
407.431042
 42
0.103617
  0
VERTEX
  8
0
 10
267.702223
 20
397.409712
 42
0.138268
  0
VERTEX
  8
0
 10
270.931012
 20
388.879441
 42
-0.008364
  0
VERTEX
  8
0
 10
272.826760
 20
386.223496
 42
-0.371369
  0
VERTEX
  8
0
 10
272.758672
 20
385.595402
 42
-0.308018
  0
VERTEX
  8
0
 10
272.070655
 20
385.488564
 42
-0.007051
  0
VERTEX
  8
0
 10
268.948389
 20
387.026330
 42
-0.107158
  0
VERTEX
  8
0
 10
263.349023
 20
391.603101
 42
-0.071523
  0
VERTEX
  8
0
 10
259.152580
 20
398.777650
 42
-0.061668
  0
VERTEX
  8
0
 10
256.681372
 20
407.946595
 42
-0.046316
  0
VERTEX
  8
0
 10
256.184536
 20
418.394481
 42
-0.041846
  0
VERTEX
  8
0
 10
257.365565
 20
427.521013
 42
-0.058884
  0
VERTEX
  8
0
 10
260.022609
 20
435.279058
 42
-0.066055
  0
VERTEX
  8
0
 10
264.102434
 20
441.512735
 42
-0.076043
  0
VERTEX
  8
0
 10
269.500000
 20
446.129298
 42
-0.085754
  0
VERTEX
  8
0
 10
272.603202
 20
447.385637
 42
-0.040735
  0
VERTEX
  8
0
 10
276.890808
 20
447.955649
 42
-0.040743
  0
VERTEX
  8
0
 10
281.189694
 20
447.823648
 42
-0.090502
  0
SEQEND
  0
POLYLINE
  8
0
 66
1
 70
1
  0
VERTEX
  8
0
 10
254.539901
 20
382.506451
 42
-0.039819
  0
VERTEX
  8
0
 10
260.912165
 20
380.358398
 42
-0.012689
  0
VERTEX
  8
0
 10
270.017764
 20
376.181226
 42
-0.012314
  0
VERTEX
  8
0
 10
278.825591
 20
371.594571
 42
-0.047217
  0
VERTEX
  8
0
 10
283.924929
 20
368.112681
 42
0.000000
  0
VERTEX
  8
0
 10
287.349858
 20
365.265981
 42
0.000000
  0
VERTEX
  8
0
 10
282.924929
 20
362.044891
 42
-0.024361
  0
VERTEX
  8
0
 10
273.721520
 20
356.008243
 42
-0.022807
  0
VERTEX
  8
0
 10
263.773926
 20
350.750727
 42
-0.022516
  0
VERTEX
  8
0
 10
253.256015
 20
346.358623
 42
-0.022261
  0
VERTEX
  8
0
 10
242.346008
 20
342.911516
 42
0.000000
  0
VERTEX
  8
0
 10
234.489499
 20
340.808740
 42
0.000000
  0
VERTEX
  8
0
 10
228.751858
 20
343.346197
 42
-0.023323
  0
VERTEX
  8
0
 10
223.270342
 20
346.082701
 42
-0.018438
  0
VERTEX
  8
0
 10
217.608031
 20
349.527364
 42
-0.018023
  0
VERTEX
  8
0
 10
212.065941
 20
353.479300
 42
-0.019207
  0
VERTEX
  8
0
 10
206.943180
 20
357.740994
 42
0.000000
  0
VERTEX
  8
0
 10
201.886345
 20
362.287524
 42
0.000000
  0
VERTEX
  8
0
 10
205.193173
 20
365.744374
 42
-0.034307
  0
VERTEX
  8
0
 10
209.040620
 20
369.250310
 42
-0.017674
  0
VERTEX
  8
0
 10
214.288505
 20
373.117424
 42
-0.017651
  0
VERTEX
  8
0
 10
219.861516
 20
376.645784
 42
-0.030749
  0
VERTEX
  8
0
 10
224.743117
 20
379.110975
 42
-0.028347
  0
VERTEX
  8
0
 10
232.915675
 20
382.089378
 42
-0.044864
  0
VERTEX
  8
0
 10
240.212741
 20
383.592385
 42
-0.048507
  0
VERTEX
  8
0
 10
247.230264
 20
383.708380
 42
-0.041305
  0
SEQEND
  0
POLYLINE
  8
0
 66
1
 70
1
  0
VERTEX
  8
0
 10
298.424491
 20
340.250000
 42
-0.023657
  0
VERTEX
  8
0
 10
315.713884
 20
300.646001
 42
-0.026734
  0
VERTEX
  8
0
 10
328.402460
 20
261.151348
 42
-0.026770
  0
VERTEX
  8
0
 10
336.791416
 20
220.575440
 42
-0.023844
  0
VERTEX
  8
0
 10
341.205426
 20
177.733967
 42
0.000000
  0
VERTEX
  8
0
 10
342.403551
 20
155.967934
 42
0.000000
  0
VERTEX
  8
0
 10
338.779230
 20
149.233967
 42
0.025167
  0
VERTEX
  8
0
 10
333.366640
 20
137.838406
 42
0.024579
  0
VERTEX
  8
0
 10
329.078728
 20
125.867473
 42
0.024552
  0
VERTEX
  8
0
 10
325.982319
 20
113.520382
 42
0.024980
  0
VERTEX
  8
0
 10
324.132682
 20
101.000000
 42
0.000000
  0
VERTEX
  8
0
 10
323.210963
 20
91.500000
 42
0.000000
  0
VERTEX
  8
0
 10
317.892475
 20
86.729795
 42
-0.060932
  0
VERTEX
  8
0
 10
307.420845
 20
79.420443
 42
-0.033346
  0
VERTEX
  8
0
 10
293.113680
 20
73.013871
 42
-0.030897
  0
VERTEX
  8
0
 10
276.520037
 20
68.015619
 42
-0.028773
  0
VERTEX
  8
0
 10
259.037914
 20
64.955875
 42
-0.026169
  0
VERTEX
  8
0
 10
248.195800
 20
64.267440
 42
-0.005278
  0
VERTEX
  8
0
 10
228.875350
 20
64.257188
 42
-0.003156
  0
VERTEX
  8
0
 10
209.010895
 20
64.581751
 42
-0.070114
  0
VERTEX
  8
0
 10
203.327618
 20
65.514366
 42
-0.107225
  0
VERTEX
  8
0
 10
202.256025
 20
66.122638
 42
-0.022073
  0
VERTEX
  8
0
 10
200.693194
 20
67.650407
 42
-0.022277
  0
VERTEX
  8
0
 10
199.003227
 20
69.624306
 42
-0.019348
  0
VERTEX
  8
0
 10
197.409944
 20
71.833485
 42
0.023816
  0
VERTEX
  8
0
 10
193.496945
 20
77.158199
 42
0.017942
  0
VERTEX
  8
0
 10
188.721506
 20
82.633237
 42
0.018153
  0
VERTEX
  8
0
 10
183.666460
 20
87.647619
 42
0.027965
  0
VERTEX
  8
0
 10
178.914142
 20
91.563026
 42
-0.059347
  0
VERTEX
  8
0
 10
171.376738
 20
98.609951
 42
-0.026796
  0
VERTEX
  8
0
 10
163.209768
 20
109.422865
 42
-0.025962
  0
VERTEX
  8
0
 10
155.669996
 20
121.961474
 42
-0.031068
  0
VERTEX
  8
0
 10
149.959509
 20
134.500000
 42
0.021052
  0
VERTEX
  8
0
 10
146.747184
 20
141.944928
 42
0.022107
  0
VERTEX
  8
0
 10
142.967320
 20
148.969605
 42
0.022727
  0
VERTEX
  8
0
 10
138.695723
 20
155.442735
 42
0.025628
  0
VERTEX
  8
0
 10
134.011034
 20
161.235975
 42
0.000000
  0
VERTEX
  8
0
 10
128.865027
 20
166.971950
 42
0.000000
  0
VERTEX
  8
0
 10
133.035226
 20
183.735975
 42
-0.011630
  0
VERTEX
  8
0
 10
137.753156
 20
200.979579
 42
-0.007357
  0
VERTEX
  8
0
 10
144.015236
 20
220.867532
 42
-0.007359
  0
VERTEX
  8
0
 10
150.854765
 20
240.547924
 42
-0.011704
  0
VERTEX
  8
0
 10
157.344455
 20
257.151769
 42
-0.007562
  0
VERTEX
  8
0
 10
160.682422
 20
264.808149
 42
-0.003010
  0
VERTEX
  8
0
 10
165.482120
 20
275.211249
 42
-0.002978
  0
VERTEX
  8
0
 10
170.795756
 20
286.374833
 42
-0.003742
  0
VERTEX
  8
0
 10
175.857879
 20
296.651769
 42
0.003162
  0
VERTEX
  8
0
 10
180.712581
 20
306.478826
 42
0.003242
  0
VERTEX
  8
0
 10
185.401802
 20
316.285207
 42
0.003140
  0
VERTEX
  8
0
 10
189.362031
 20
324.846154
 42
0.013624
  0
VERTEX
  8
0
 10
191.539522
 20
330.000000
 42
-0.001168
  0
VERTEX
  8
0
 10
192.980630
 20
333.662826
 42
-0.001847
  0
VERTEX
  8
0
 10
194.235142
 20
336.795808
 42
-0.000415
  0
VERTEX
  8
0
 10
195.348115
 20
339.539282
 42
-0.080559
  0
VERTEX
  8
0
 10
195.503380
 20
339.794241
 42
-0.375160
  0
VERTEX
  8
0
 10
195.726638
 20
339.826889
 42
-0.001745
  0
VERTEX
  8
0
 10
197.851007
 20
338.446865
 42
-0.006591
  0
VERTEX
  8
0
 10
200.291397
 20
336.803058
 42
-0.003978
  0
VERTEX
  8
0
 10
203.141754
 20
334.794241
 42
0.021661
  0
VERTEX
  8
0
 10
209.325867
 20
330.755363
 42
0.018666
  0
VERTEX
  8
0
 10
216.145917
 20
327.048014
 42
0.018990
  0
VERTEX
  8
0
 10
223.068126
 20
323.935063
 42
0.025637
  0
VERTEX
  8
0
 10
229.554234
 20
321.688967
 42
0.028575
  0
VERTEX
  8
0
 10
232.858381
 20
320.932829
 42
0.069894
  0
VERTEX
  8
0
 10
235.346763
 20
320.862445
 42
0.041368
  0
VERTEX
  8
0
 10
238.440445
 20
321.470176
 42
0.005084
  0
VERTEX
  8
0
 10
245.054234
 20
323.421006
 42
0.014985
  0
VERTEX
  8
0
 10
255.503380
 20
326.964721
 42
0.011861
  0
VERTEX
  8
0
 10
266.579886
 20
331.397240
 42
0.012057
  0
VERTEX
  8
0
 10
277.141001
 20
336.221477
 42
0.018590
  0
VERTEX
  8
0
 10
286.000000
 20
340.944210
 42
-0.002135
  0
VERTEX
  8
0
 10
289.297021
 20
342.843714
 42
-0.003304
  0
VERTEX
  8
0
 10
292.162244
 20
344.453193
 42
-0.001049
  0
VERTEX
  8
0
 10
294.653805
 20
345.824380
 42
-0.100231
  0
VERTEX
  8
0
 10
295.041682
 20
345.944877
 42
-0.285667
  0
VERTEX
  8
0
 10
295.342277
 20
345.797778
 42
-0.005796
  0
VERTEX
  8
0
 10
296.258826
 20
344.294745
 42
-0.011826
  0
VERTEX
  8
0
 10
297.296322
 20
342.450143
 42
-0.007444
  0
SEQEND
  0
POLYLINE
  8
0
 66
1
 70
1
  0
VERTEX
  8
0
 10
120.873841
 20
144.064348
 42
-0.015770
  0
VERTEX
  8
0
 10
122.719095
 20
141.248916
 42
-0.008342
  0
VERTEX
  8
0
 10
124.837022
 20
137.650266
 42
-0.008293
  0
VERTEX
  8
0
 10
126.883231
 20
133.892906
 42
-0.012694
  0
VERTEX
  8
0
 10
128.518732
 20
130.564348
 42
-0.000009
  0
VERTEX
  8
0
 10
130.101240
 20
127.125602
 42
-0.000005
  0
VERTEX
  8
0
 10
131.990341
 20
123.020339
 42
-0.000005
  0
VERTEX
  8
0
 10
133.876314
 20
118.921651
 42
-0.000009
  0
VERTEX
  8
0
 10
135.448386
 20
115.504893
 42
0.030253
  0
VERTEX
  8
0
 10
141.666047
 20
103.895436
 42
0.026786
  0
VERTEX
  8
0
 10
149.475967
 20
92.619197
 42
0.027565
  0
VERTEX
  8
0
 10
158.130094
 20
82.640237
 42
0.040112
  0
VERTEX
  8
0
 10
166.875189
 20
74.953427
 42
-0.026012
  0
VERTEX
  8
0
 10
171.855898
 20
70.818209
 42
-0.029280
  0
VERTEX
  8
0
 10
176.175613
 20
66.339471
 42
-0.030044
  0
VERTEX
  8
0
 10
179.845941
 20
61.498462
 42
-0.030588
  0
VERTEX
  8
0
 10
182.885625
 20
56.280500
 42
-0.048743
  0
VERTEX
  8
0
 10
185.985012
 20
48.263855
 42
-0.041127
  0
VERTEX
  8
0
 10
187.697342
 20
39.326640
 42
-0.043070
  0
VERTEX
  8
0
 10
187.872230
 20
31.002698
 42
-0.099883
  0
VERTEX
  8
0
 10
186.248446
 20
25.000000
 42
-0.029015
  0
VERTEX
  8
0
 10
185.060445
 20
22.931386
 42
-0.132574
  0
VERTEX
  8
0
 10
184.034729
 20
22.017391
 42
-0.106786
  0
VERTEX
  8
0
 10
182.574014
 20
21.642092
 42
-0.015635
  0
VERTEX
  8
0
 10
179.496983
 20
21.619148
 42
-0.045801
  0
VERTEX
  8
0
 10
172.413181
 20
22.439894
 42
-0.023563
  0
VERTEX
  8
0
 10
163.761460
 20
24.685960
 42
-0.020516
  0
VERTEX
  8
0
 10
153.881974
 20
28.204559
 42
-0.014170
  0
VERTEX
  8
0
 10
143.000000
 20
32.953735
 42
0.005605
  0
VERTEX
  8
0
 10
131.161153
 20
38.363744
 42
0.035628
  0
VERTEX
  8
0
 10
124.943983
 20
40.606448
 42
0.044751
  0
VERTEX
  8
0
 10
119.054951
 20
41.711763
 42
0.011846
  0
VERTEX
  8
0
 10
109.500000
 20
42.404747
 42
-0.014992
  0
VERTEX
  8
0
 10
95.344632
 20
43.520946
 42
-0.017469
  0
VERTEX
  8
0
 10
81.991052
 20
45.451917
 42
-0.016425
  0
VERTEX
  8
0
 10
70.906763
 20
47.830553
 42
-0.097087
  0
VERTEX
  8
0
 10
65.556557
 20
50.334986
 42
-0.068613
  0
VERTEX
  8
0
 10
64.671615
 20
51.190316
 42
-0.138306
  0
VERTEX
  8
0
 10
64.305236
 20
52.080282
 42
-0.084626
  0
VERTEX
  8
0
 10
64.371311
 20
53.321448
 42
-0.015411
  0
VERTEX
  8
0
 10
64.949570
 20
55.559430
 42
0.049992
  0
VERTEX
  8
0
 10
66.212570
 20
62.354533
 42
0.016364
  0
VERTEX
  8
0
 10
66.733935
 20
72.539480
 42
0.016818
  0
VERTEX
  8
0
 10
66.572251
 20
83.166393
 42
0.031043
  0
VERTEX
  8
0
 10
65.616260
 20
91.750445
 42
-0.006674
  0
VERTEX
  8
0
 10
64.091511
 20
101.220997
 42
-0.078060
  0
VERTEX
  8
0
 10
64.127040
 20
104.952170
 42
-0.180168
  0
VERTEX
  8
0
 10
65.413505
 20
107.189487
 42
-0.069104
  0
VERTEX
  8
0
 10
68.512432
 20
109.108524
 42
-0.028910
  0
VERTEX
  8
0
 10
70.836526
 20
109.979785
 42
-0.010217
  0
VERTEX
  8
0
 10
74.254619
 20
110.964260
 42
-0.010102
  0
VERTEX
  8
0
 10
78.062388
 20
111.895244
 42
-0.011696
  0
VERTEX
  8
0
 10
81.723694
 20
112.622941
 42
0.033704
  0
VERTEX
  8
0
 10
91.434253
 20
115.001219
 42
0.063111
  0
VERTEX
  8
0
 10
98.761528
 20
118.393867
 42
0.076173
  0
VERTEX
  8
0
 10
104.079097
 20
122.980510
 42
0.077719
  0
VERTEX
  8
0
 10
107.735833
 20
128.919628
 42
0.019021
  0
VERTEX
  8
0
 10
108.413794
 20
130.727786
 42
0.005704
  0
VERTEX
  8
0
 10
109.309107
 20
133.529750
 42
0.005709
  0
VERTEX
  8
0
 10
110.242902
 20
136.699992
 42
0.006160
  0
VERTEX
  8
0
 10
111.079701
 20
139.811630
 42
-0.012295
  0
VERTEX
  8
0
 10
112.401018
 20
144.495083
 42
-0.037154
  0
VERTEX
  8
0
 10
113.610930
 20
147.579338
 42
-0.058332
  0
VERTEX
  8
0
 10
114.783841
 20
149.430994
 42
-0.226146
  0
VERTEX
  8
0
 10
115.977554
 20
150.000000
 42
-0.217125
  0
VERTEX
  8
0
 10
116.407423
 20
149.804094
 42
-0.006458
  0
VERTEX
  8
0
 10
117.718062
 20
148.256402
 42
-0.011781
  0
VERTEX
  8
0
 10
119.225151
 20
146.339108
 42
-0.007728
  0
SEQEND
  0
POLYLINE
  8
0
 66
1
 70
1
  0
VERTEX
  8
0
 10
360.500000
 20
109.677858
 42
0.047472
  0
VERTEX
  8
0
 10
363.203300
 20
108.554977
 42
0.039380
  0
VERTEX
  8
0
 10
366.244971
 20
107.874492
 42
0.023400
  0
VERTEX
  8
0
 10
370.569996
 20
107.464181
 42
0.005172
  0
VERTEX
  8
0
 10
378.012817
 20
107.185314
 42
0.005474
  0
VERTEX
  8
0
 10
385.717588
 20
107.060800
 42
0.023634
  0
VERTEX
  8
0
 10
390.291979
 20
107.253250
 42
0.034819
  0
VERTEX
  8
0
 10
393.910451
 20
107.833165
 42
0.024108
  0
VERTEX
  8
0
 10
397.899046
 20
108.965991
 42
0.014822
  0
VERTEX
  8
0
 10
400.602678
 20
109.966943
 42
0.011826
  0
VERTEX
  8
0
 10
403.456566
 20
111.200116
 42
0.012001
  0
VERTEX
  8
0
 10
406.046176
 20
112.468733
 42
0.029338
  0
VERTEX
  8
0
 10
407.868364
 20
113.556519
 42
-0.011195
  0
VERTEX
  8
0
 10
410.902067
 20
115.520162
 42
-0.156802
  0
VERTEX
  8
0
 10
412.148442
 20
115.826490
 42
-0.342825
  0
VERTEX
  8
0
 10
412.817068
 20
115.227391
 42
-0.044943
  0
VERTEX
  8
0
 10
413.000000
 20
113.196344
 42
0.059646
  0
VERTEX
  8
0
 10
413.170425
 20
111.772789
 42
0.018564
  0
VERTEX
  8
0
 10
413.757029
 20
109.697103
 42
0.018266
  0
VERTEX
  8
0
 10
414.590659
 20
107.406793
 42
0.019177
  0
VERTEX
  8
0
 10
415.577121
 20
105.221081
 42
0.060353
  0
VERTEX
  8
0
 10
418.307683
 20
101.079279
 42
0.034182
  0
VERTEX
  8
0
 10
422.504299
 20
96.766608
 42
0.025556
  0
VERTEX
  8
0
 10
428.514370
 20
91.910493
 42
0.010941
  0
VERTEX
  8
0
 10
437.000000
 20
86.022372
 42
-0.011269
  0
VERTEX
  8
0
 10
441.595246
 20
82.829286
 42
-0.016545
  0
VERTEX
  8
0
 10
445.472957
 20
79.801740
 42
-0.011844
  0
VERTEX
  8
0
 10
448.490900
 20
77.156567
 42
-0.209862
  0
VERTEX
  8
0
 10
449.000000
 20
75.997050
 42
-0.279046
  0
VERTEX
  8
0
 10
448.306180
 20
74.850655
 42
-0.010385
  0
VERTEX
  8
0
 10
443.598654
 20
72.509332
 42
-0.014799
  0
VERTEX
  8
0
 10
437.304749
 20
69.765064
 42
-0.007055
  0
VERTEX
  8
0
 10
429.061788
 20
66.591951
 42
0.017443
  0
VERTEX
  8
0
 10
416.877284
 20
61.608534
 42
0.039236
  0
VERTEX
  8
0
 10
408.128289
 20
56.811285
 42
0.037915
  0
VERTEX
  8
0
 10
400.058012
 20
50.602322
 42
0.015308
  0
VERTEX
  8
0
 10
390.000000
 20
41.000762
 42
-0.020305
  0
VERTEX
  8
0
 10
379.166651
 20
30.863966
 42
-0.057339
  0
VERTEX
  8
0
 10
370.608788
 20
25.046358
 42
-0.071813
  0
VERTEX
  8
0
 10
362.127904
 20
22.054899
 42
-0.047884
  0
VERTEX
  8
0
 10
351.860784
 20
21.024446
 42
-0.091256
  0
VERTEX
  8
0
 10
345.514030
 20
22.164104
 42
-0.201223
  0
VERTEX
  8
0
 10
341.999412
 20
25.483376
 42
-0.105216
  0
VERTEX
  8
0
 10
340.608904
 20
32.098893
 42
-0.016923
  0
VERTEX
  8
0
 10
341.090490
 20
45.348719
 42
-0.005646
  0
VERTEX
  8
0
 10
342.591774
 20
63.736240
 42
-0.002854
  0
VERTEX
  8
0
 10
344.877064
 20
86.869861
 42
-0.001746
  0
VERTEX
  8
0
 10
347.296828
 20
109.257151
 42
-0.027182
  0
VERTEX
  8
0
 10
348.568146
 20
116.867999
 42
-0.044003
  0
VERTEX
  8
0
 10
348.993740
 20
118.206692
 42
-0.388869
  0
VERTEX
  8
0
 10
349.509587
 20
118.445324
 42
-0.115604
  0
VERTEX
  8
0
 10
350.324525
 20
117.958322
 42
-0.004635
  0
VERTEX
  8
0
 10
352.798668
 20
115.520014
 42
0.020797
  0
VERTEX
  8
0
 10
354.507005
 20
113.941929
 42
0.013806
  0
VERTEX
  8
0
 10
356.587734
 20
112.271038
 42
0.013908
  0
VERTEX
  8
0
 10
358.701694
 20
110.758151
 42
0.026202
  0
SEQEND
  0
ENDSEC
  0
EOF
