solid OpenSCAD_Model
  facet normal -0 0 1
    outer loop
      vertex -125 125 0
      vertex 125 -125 0
      vertex 125 125 0
    endloop
  endfacet
  facet normal 0 0 1
    outer loop
      vertex 125 -125 0
      vertex -125 125 0
      vertex -125 -125 0
    endloop
  endfacet
  facet normal 0 0 -1
    outer loop
      vertex -125 -125 -8
      vertex 125 125 -8
      vertex 125 -125 -8
    endloop
  endfacet
  facet normal -0 0 -1
    outer loop
      vertex 125 125 -8
      vertex -125 -125 -8
      vertex -125 125 -8
    endloop
  endfacet
  facet normal 0 -1 0
    outer loop
      vertex -125 -125 -8
      vertex 125 -125 0
      vertex -125 -125 0
    endloop
  endfacet
  facet normal 0 -1 -0
    outer loop
      vertex 125 -125 0
      vertex -125 -125 -8
      vertex 125 -125 -8
    endloop
  endfacet
  facet normal 1 -0 0
    outer loop
      vertex 125 -125 0
      vertex 125 125 -8
      vertex 125 125 0
    endloop
  endfacet
  facet normal 1 0 0
    outer loop
      vertex 125 125 -8
      vertex 125 -125 0
      vertex 125 -125 -8
    endloop
  endfacet
  facet normal 0 1 -0
    outer loop
      vertex 125 125 -8
      vertex -125 125 0
      vertex 125 125 0
    endloop
  endfacet
  facet normal 0 1 0
    outer loop
      vertex -125 125 0
      vertex 125 125 -8
      vertex -125 125 -8
    endloop
  endfacet
  facet normal -1 0 0
    outer loop
      vertex -125 -125 -8
      vertex -125 125 0
      vertex -125 125 -8
    endloop
  endfacet
  facet normal -1 -0 0
    outer loop
      vertex -125 125 0
      vertex -125 -125 -8
      vertex -125 -125 0
    endloop
  endfacet
endsolid OpenSCAD_Model
